<mxfile host="65bd71144e">
    <diagram id="lS7s0SmvETfpQb1Q9BnN" name="inner-order">
        <mxGraphModel dx="1567" dy="1260" grid="1" gridSize="10" guides="1" tooltips="1" connect="1" arrows="1" fold="1" page="1" pageScale="1" pageWidth="2336" pageHeight="1654" math="0" shadow="0">
            <root>
                <mxCell id="0"/>
                <mxCell id="1" parent="0"/>
                <mxCell id="2" value="Order" style="swimlane;childLayout=stackLayout;resizeParent=1;resizeParentMax=0;horizontal=1;startSize=20;horizontalStack=0;strokeColor=#2D7600;fillColor=#60a917;fontColor=#ffffff;strokeWidth=4;shadow=0;rounded=0;" parent="1" vertex="1">
                    <mxGeometry x="120" y="70" width="2190" height="1490" as="geometry"/>
                </mxCell>
                <mxCell id="3" value="customer" style="swimlane;startSize=20;horizontal=0;" parent="2" vertex="1">
                    <mxGeometry y="20" width="2190" height="185" as="geometry">
                        <mxRectangle x="20" width="1860" height="20" as="alternateBounds"/>
                    </mxGeometry>
                </mxCell>
                <mxCell id="79" style="edgeStyle=orthogonalEdgeStyle;rounded=0;orthogonalLoop=1;jettySize=auto;html=1;exitX=0.5;exitY=0;exitDx=0;exitDy=0;entryX=0.5;entryY=0;entryDx=0;entryDy=0;" parent="3" edge="1">
                    <mxGeometry relative="1" as="geometry">
                        <mxPoint x="635" y="85" as="targetPoint"/>
                    </mxGeometry>
                </mxCell>
                <mxCell id="4" value="بله" style="swimlane;startSize=20;horizontal=0;" parent="2" vertex="1">
                    <mxGeometry y="205" width="2190" height="1285" as="geometry"/>
                </mxCell>
                <mxCell id="356" style="edgeStyle=orthogonalEdgeStyle;rounded=0;orthogonalLoop=1;jettySize=auto;html=1;exitX=1;exitY=0.5;exitDx=0;exitDy=0;entryX=0;entryY=0.5;entryDx=0;entryDy=0;" parent="4" source="210" target="348" edge="1">
                    <mxGeometry relative="1" as="geometry"/>
                </mxCell>
                <mxCell id="383" style="edgeStyle=orthogonalEdgeStyle;rounded=0;orthogonalLoop=1;jettySize=auto;html=1;exitX=1;exitY=0.5;exitDx=0;exitDy=0;entryX=0.013;entryY=0.508;entryDx=0;entryDy=0;entryPerimeter=0;" parent="4" source="210" target="217" edge="1">
                    <mxGeometry relative="1" as="geometry"/>
                </mxCell>
                <mxCell id="210" value="&lt;font style=&quot;font-size: 16px&quot;&gt;بررسی درخواست&amp;nbsp;&lt;/font&gt;" style="whiteSpace=wrap;html=1;fontColor=#ffffff;strokeColor=#2D7600;fillColor=#60a917;" parent="4" vertex="1">
                    <mxGeometry x="172.5" y="105" width="120" height="60" as="geometry"/>
                </mxCell>
                <mxCell id="407" value="" style="edgeStyle=none;html=1;" edge="1" parent="4" source="obBfX_c-ooc2OHzCGnZm-211" target="405">
                    <mxGeometry relative="1" as="geometry"/>
                </mxCell>
                <mxCell id="obBfX_c-ooc2OHzCGnZm-211" value="جمع آوری&amp;nbsp;" style="whiteSpace=wrap;html=1;fontColor=#ffffff;strokeColor=#2D7600;fillColor=#60a917;" parent="4" vertex="1">
                    <mxGeometry x="640" y="50.54" width="120" height="35" as="geometry"/>
                </mxCell>
                <mxCell id="381" style="edgeStyle=orthogonalEdgeStyle;rounded=0;orthogonalLoop=1;jettySize=auto;html=1;exitX=1;exitY=0.5;exitDx=0;exitDy=0;" parent="4" source="obBfX_c-ooc2OHzCGnZm-220" target="372" edge="1">
                    <mxGeometry relative="1" as="geometry"/>
                </mxCell>
                <mxCell id="obBfX_c-ooc2OHzCGnZm-220" value="لیزینگ" style="whiteSpace=wrap;html=1;fontColor=#ffffff;strokeColor=#2D7600;fillColor=#60a917;" parent="4" vertex="1">
                    <mxGeometry x="670" y="883.75" width="120" height="35" as="geometry"/>
                </mxCell>
                <mxCell id="351" value="" style="edgeStyle=orthogonalEdgeStyle;rounded=0;orthogonalLoop=1;jettySize=auto;html=1;" parent="4" source="obBfX_c-ooc2OHzCGnZm-218" target="350" edge="1">
                    <mxGeometry relative="1" as="geometry"/>
                </mxCell>
                <mxCell id="obBfX_c-ooc2OHzCGnZm-218" value="بازاریاب" style="whiteSpace=wrap;html=1;fontColor=#ffffff;strokeColor=#2D7600;fillColor=#60a917;" parent="4" vertex="1">
                    <mxGeometry x="640" y="735" width="120" height="35" as="geometry"/>
                </mxCell>
                <mxCell id="304" style="edgeStyle=orthogonalEdgeStyle;rounded=0;orthogonalLoop=1;jettySize=auto;html=1;exitX=1;exitY=0.5;exitDx=0;exitDy=0;startArrow=none;" parent="4" source="416" target="293" edge="1">
                    <mxGeometry relative="1" as="geometry"/>
                </mxCell>
                <mxCell id="obBfX_c-ooc2OHzCGnZm-217" value="انبار" style="whiteSpace=wrap;html=1;fontColor=#ffffff;strokeColor=#2D7600;fillColor=#60a917;" parent="4" vertex="1">
                    <mxGeometry x="640" y="594.3" width="120" height="35" as="geometry"/>
                </mxCell>
                <mxCell id="414" value="" style="edgeStyle=none;html=1;" edge="1" parent="4" source="obBfX_c-ooc2OHzCGnZm-216" target="413">
                    <mxGeometry relative="1" as="geometry"/>
                </mxCell>
                <mxCell id="obBfX_c-ooc2OHzCGnZm-216" value="پرینت" style="whiteSpace=wrap;html=1;fontColor=#ffffff;strokeColor=#2D7600;fillColor=#60a917;" parent="4" vertex="1">
                    <mxGeometry x="640" y="445" width="120" height="35" as="geometry"/>
                </mxCell>
                <mxCell id="274" value="" style="edgeStyle=orthogonalEdgeStyle;rounded=0;orthogonalLoop=1;jettySize=auto;html=1;" parent="4" source="obBfX_c-ooc2OHzCGnZm-215" target="260" edge="1">
                    <mxGeometry relative="1" as="geometry"/>
                </mxCell>
                <mxCell id="obBfX_c-ooc2OHzCGnZm-215" value="ثبت سفارش" style="whiteSpace=wrap;html=1;fontColor=#ffffff;strokeColor=#2D7600;fillColor=#60a917;" parent="4" vertex="1">
                    <mxGeometry x="640" y="311.88" width="120" height="35" as="geometry"/>
                </mxCell>
                <mxCell id="252" style="edgeStyle=orthogonalEdgeStyle;rounded=0;orthogonalLoop=1;jettySize=auto;html=1;exitX=1;exitY=0.5;exitDx=0;exitDy=0;entryX=0;entryY=0.5;entryDx=0;entryDy=0;startArrow=none;" parent="4" source="410" target="239" edge="1">
                    <mxGeometry relative="1" as="geometry"/>
                </mxCell>
                <mxCell id="412" value="" style="edgeStyle=none;html=1;" edge="1" parent="4" source="obBfX_c-ooc2OHzCGnZm-214" target="410">
                    <mxGeometry relative="1" as="geometry"/>
                </mxCell>
                <mxCell id="obBfX_c-ooc2OHzCGnZm-214" value="کارتون و لفاف" style="whiteSpace=wrap;html=1;fontColor=#ffffff;strokeColor=#2D7600;fillColor=#60a917;" parent="4" vertex="1">
                    <mxGeometry x="640" y="185" width="120" height="35" as="geometry"/>
                </mxCell>
                <mxCell id="306" style="edgeStyle=orthogonalEdgeStyle;rounded=0;orthogonalLoop=1;jettySize=auto;html=1;exitX=1;exitY=0.5;exitDx=0;exitDy=0;" parent="4" source="215" target="227" edge="1">
                    <mxGeometry relative="1" as="geometry"/>
                </mxCell>
                <mxCell id="215" value="انتخاب شخص پیمانکار" style="whiteSpace=wrap;html=1;fontColor=#ffffff;strokeColor=#2D7600;fillColor=#60a917;" parent="4" vertex="1">
                    <mxGeometry x="1180" y="47.879999999999995" width="100" height="41.25" as="geometry"/>
                </mxCell>
                <mxCell id="219" style="edgeStyle=orthogonalEdgeStyle;rounded=0;orthogonalLoop=1;jettySize=auto;html=1;exitX=1;exitY=0.5;exitDx=0;exitDy=0;" parent="4" source="217" target="obBfX_c-ooc2OHzCGnZm-211" edge="1">
                    <mxGeometry relative="1" as="geometry"/>
                </mxCell>
                <mxCell id="221" style="edgeStyle=orthogonalEdgeStyle;rounded=0;orthogonalLoop=1;jettySize=auto;html=1;exitX=1;exitY=0.5;exitDx=0;exitDy=0;entryX=0;entryY=0.5;entryDx=0;entryDy=0;" parent="4" source="217" target="obBfX_c-ooc2OHzCGnZm-214" edge="1">
                    <mxGeometry relative="1" as="geometry"/>
                </mxCell>
                <mxCell id="222" style="edgeStyle=orthogonalEdgeStyle;rounded=0;orthogonalLoop=1;jettySize=auto;html=1;exitX=1;exitY=0.5;exitDx=0;exitDy=0;entryX=0;entryY=0.25;entryDx=0;entryDy=0;" parent="4" source="217" target="obBfX_c-ooc2OHzCGnZm-215" edge="1">
                    <mxGeometry relative="1" as="geometry"/>
                </mxCell>
                <mxCell id="223" style="edgeStyle=orthogonalEdgeStyle;rounded=0;orthogonalLoop=1;jettySize=auto;html=1;exitX=1;exitY=0.5;exitDx=0;exitDy=0;entryX=0;entryY=0.5;entryDx=0;entryDy=0;" parent="4" source="217" target="obBfX_c-ooc2OHzCGnZm-216" edge="1">
                    <mxGeometry relative="1" as="geometry"/>
                </mxCell>
                <mxCell id="224" style="edgeStyle=orthogonalEdgeStyle;rounded=0;orthogonalLoop=1;jettySize=auto;html=1;exitX=1;exitY=0.5;exitDx=0;exitDy=0;entryX=0;entryY=0.5;entryDx=0;entryDy=0;" parent="4" source="217" target="obBfX_c-ooc2OHzCGnZm-217" edge="1">
                    <mxGeometry relative="1" as="geometry"/>
                </mxCell>
                <mxCell id="217" value="&lt;font style=&quot;font-size: 15px&quot;&gt;خدمات فنی و مهندسی&amp;nbsp;&lt;/font&gt;" style="whiteSpace=wrap;html=1;fontColor=#ffffff;strokeColor=#2D7600;fillColor=#60a917;" parent="4" vertex="1">
                    <mxGeometry x="380" y="59.68" width="120" height="60" as="geometry"/>
                </mxCell>
                <mxCell id="230" value="" style="edgeStyle=orthogonalEdgeStyle;rounded=0;orthogonalLoop=1;jettySize=auto;html=1;" parent="4" source="227" target="229" edge="1">
                    <mxGeometry relative="1" as="geometry"/>
                </mxCell>
                <mxCell id="227" value="مشخص کردن پیمانکار" style="whiteSpace=wrap;html=1;fontColor=#ffffff;strokeColor=#2D7600;fillColor=#60a917;" parent="4" vertex="1">
                    <mxGeometry x="1365" y="51.31" width="100" height="34.38" as="geometry"/>
                </mxCell>
                <mxCell id="232" value="" style="edgeStyle=orthogonalEdgeStyle;rounded=0;orthogonalLoop=1;jettySize=auto;html=1;" parent="4" source="229" target="231" edge="1">
                    <mxGeometry relative="1" as="geometry"/>
                </mxCell>
                <mxCell id="229" value="برآورد هزینه&amp;nbsp;" style="whiteSpace=wrap;html=1;fontColor=#ffffff;strokeColor=#2D7600;fillColor=#60a917;" parent="4" vertex="1">
                    <mxGeometry x="1540" y="50.849999999999994" width="70" height="34.69" as="geometry"/>
                </mxCell>
                <mxCell id="308" value="" style="edgeStyle=orthogonalEdgeStyle;rounded=0;orthogonalLoop=1;jettySize=auto;html=1;" parent="4" source="231" target="307" edge="1">
                    <mxGeometry relative="1" as="geometry"/>
                </mxCell>
                <mxCell id="231" value="مشخص کردن قیمت نهایی" style="whiteSpace=wrap;html=1;fontColor=#ffffff;strokeColor=#2D7600;fillColor=#60a917;" parent="4" vertex="1">
                    <mxGeometry x="1650" y="51.309999999999995" width="120" height="34.23" as="geometry"/>
                </mxCell>
                <mxCell id="320" style="edgeStyle=orthogonalEdgeStyle;rounded=0;orthogonalLoop=1;jettySize=auto;html=1;exitX=1;exitY=0.5;exitDx=0;exitDy=0;entryX=0;entryY=0.5;entryDx=0;entryDy=0;" parent="4" source="239" target="243" edge="1">
                    <mxGeometry relative="1" as="geometry"/>
                </mxCell>
                <mxCell id="239" value="انتخاب شخص پیمانکار" style="whiteSpace=wrap;html=1;fontColor=#ffffff;strokeColor=#2D7600;fillColor=#60a917;" parent="4" vertex="1">
                    <mxGeometry x="970" y="181.88" width="120" height="41.25" as="geometry"/>
                </mxCell>
                <mxCell id="243" value="مشخص کردن پیمانکار" style="whiteSpace=wrap;html=1;fontColor=#ffffff;strokeColor=#2D7600;fillColor=#60a917;" parent="4" vertex="1">
                    <mxGeometry x="1140" y="185" width="120" height="34.38" as="geometry"/>
                </mxCell>
                <mxCell id="245" value="برآورد هزینه&amp;nbsp;" style="whiteSpace=wrap;html=1;fontColor=#ffffff;strokeColor=#2D7600;fillColor=#60a917;" parent="4" vertex="1">
                    <mxGeometry x="1330" y="184.69" width="120" height="34.69" as="geometry"/>
                </mxCell>
                <mxCell id="242" value="" style="edgeStyle=orthogonalEdgeStyle;rounded=0;orthogonalLoop=1;jettySize=auto;html=1;" parent="4" source="243" target="245" edge="1">
                    <mxGeometry relative="1" as="geometry"/>
                </mxCell>
                <mxCell id="326" style="edgeStyle=orthogonalEdgeStyle;rounded=0;orthogonalLoop=1;jettySize=auto;html=1;exitX=1;exitY=0.5;exitDx=0;exitDy=0;entryX=0;entryY=0.5;entryDx=0;entryDy=0;" parent="4" source="246" target="315" edge="1">
                    <mxGeometry relative="1" as="geometry"/>
                </mxCell>
                <mxCell id="246" value="مشخص کردن قیمت نهایی" style="whiteSpace=wrap;html=1;fontColor=#ffffff;strokeColor=#2D7600;fillColor=#60a917;" parent="4" vertex="1">
                    <mxGeometry x="1540" y="184.69" width="120" height="34.23" as="geometry"/>
                </mxCell>
                <mxCell id="244" value="" style="edgeStyle=orthogonalEdgeStyle;rounded=0;orthogonalLoop=1;jettySize=auto;html=1;" parent="4" source="245" target="246" edge="1">
                    <mxGeometry relative="1" as="geometry"/>
                </mxCell>
                <mxCell id="322" style="edgeStyle=orthogonalEdgeStyle;rounded=0;orthogonalLoop=1;jettySize=auto;html=1;exitX=1;exitY=0.5;exitDx=0;exitDy=0;" parent="4" source="260" target="261" edge="1">
                    <mxGeometry relative="1" as="geometry"/>
                </mxCell>
                <mxCell id="260" value="انتخاب شخص پیمانکار" style="whiteSpace=wrap;html=1;fontColor=#ffffff;strokeColor=#2D7600;fillColor=#60a917;" parent="4" vertex="1">
                    <mxGeometry x="825" y="314.7" width="120" height="41.25" as="geometry"/>
                </mxCell>
                <mxCell id="261" value="مشخص کردن پیمانکار" style="whiteSpace=wrap;html=1;fontColor=#ffffff;strokeColor=#2D7600;fillColor=#60a917;" parent="4" vertex="1">
                    <mxGeometry x="1050" y="318.13" width="120" height="34.38" as="geometry"/>
                </mxCell>
                <mxCell id="262" value="برآورد هزینه&amp;nbsp;" style="whiteSpace=wrap;html=1;fontColor=#ffffff;strokeColor=#2D7600;fillColor=#60a917;" parent="4" vertex="1">
                    <mxGeometry x="1240" y="314.69000000000005" width="120" height="34.69" as="geometry"/>
                </mxCell>
                <mxCell id="263" value="" style="edgeStyle=orthogonalEdgeStyle;rounded=0;orthogonalLoop=1;jettySize=auto;html=1;" parent="4" source="261" target="262" edge="1">
                    <mxGeometry relative="1" as="geometry"/>
                </mxCell>
                <mxCell id="327" style="edgeStyle=orthogonalEdgeStyle;rounded=0;orthogonalLoop=1;jettySize=auto;html=1;exitX=1;exitY=0.5;exitDx=0;exitDy=0;" parent="4" source="264" target="323" edge="1">
                    <mxGeometry relative="1" as="geometry"/>
                </mxCell>
                <mxCell id="264" value="مشخص کردن قیمت نهایی" style="whiteSpace=wrap;html=1;fontColor=#ffffff;strokeColor=#2D7600;fillColor=#60a917;" parent="4" vertex="1">
                    <mxGeometry x="1450" y="311.88000000000005" width="120" height="34.23" as="geometry"/>
                </mxCell>
                <mxCell id="265" value="" style="edgeStyle=orthogonalEdgeStyle;rounded=0;orthogonalLoop=1;jettySize=auto;html=1;" parent="4" source="262" target="264" edge="1">
                    <mxGeometry relative="1" as="geometry"/>
                </mxCell>
                <mxCell id="337" style="edgeStyle=orthogonalEdgeStyle;rounded=0;orthogonalLoop=1;jettySize=auto;html=1;exitX=1;exitY=0.75;exitDx=0;exitDy=0;" parent="4" source="278" target="279" edge="1">
                    <mxGeometry relative="1" as="geometry"/>
                </mxCell>
                <mxCell id="278" value="انتخاب شخص پیمانکار" style="whiteSpace=wrap;html=1;fontColor=#ffffff;strokeColor=#2D7600;fillColor=#60a917;" parent="4" vertex="1">
                    <mxGeometry x="955" y="441.88" width="120" height="41.25" as="geometry"/>
                </mxCell>
                <mxCell id="279" value="مشخص کردن پیمانکار" style="whiteSpace=wrap;html=1;fontColor=#ffffff;strokeColor=#2D7600;fillColor=#60a917;" parent="4" vertex="1">
                    <mxGeometry x="1120" y="455" width="120" height="34.38" as="geometry"/>
                </mxCell>
                <mxCell id="280" value="برآورد هزینه&amp;nbsp;" style="whiteSpace=wrap;html=1;fontColor=#ffffff;strokeColor=#2D7600;fillColor=#60a917;" parent="4" vertex="1">
                    <mxGeometry x="1310" y="454.69000000000005" width="120" height="34.69" as="geometry"/>
                </mxCell>
                <mxCell id="281" value="" style="edgeStyle=orthogonalEdgeStyle;rounded=0;orthogonalLoop=1;jettySize=auto;html=1;" parent="4" source="279" target="280" edge="1">
                    <mxGeometry relative="1" as="geometry"/>
                </mxCell>
                <mxCell id="336" style="edgeStyle=orthogonalEdgeStyle;rounded=0;orthogonalLoop=1;jettySize=auto;html=1;exitX=1;exitY=0.5;exitDx=0;exitDy=0;" parent="4" source="282" target="333" edge="1">
                    <mxGeometry relative="1" as="geometry"/>
                </mxCell>
                <mxCell id="282" value="مشخص کردن قیمت نهایی" style="whiteSpace=wrap;html=1;fontColor=#ffffff;strokeColor=#2D7600;fillColor=#60a917;" parent="4" vertex="1">
                    <mxGeometry x="1520" y="454.69000000000005" width="120" height="34.23" as="geometry"/>
                </mxCell>
                <mxCell id="283" value="" style="edgeStyle=orthogonalEdgeStyle;rounded=0;orthogonalLoop=1;jettySize=auto;html=1;" parent="4" source="280" target="282" edge="1">
                    <mxGeometry relative="1" as="geometry"/>
                </mxCell>
                <mxCell id="343" style="edgeStyle=orthogonalEdgeStyle;rounded=0;orthogonalLoop=1;jettySize=auto;html=1;exitX=1;exitY=0.5;exitDx=0;exitDy=0;" parent="4" source="293" target="294" edge="1">
                    <mxGeometry relative="1" as="geometry"/>
                </mxCell>
                <mxCell id="293" value="انتخاب شخص پیمانکار" style="whiteSpace=wrap;html=1;fontColor=#ffffff;strokeColor=#2D7600;fillColor=#60a917;" parent="4" vertex="1">
                    <mxGeometry x="955" y="591.18" width="120" height="41.25" as="geometry"/>
                </mxCell>
                <mxCell id="294" value="مشخص کردن پیمانکار" style="whiteSpace=wrap;html=1;fontColor=#ffffff;strokeColor=#2D7600;fillColor=#60a917;" parent="4" vertex="1">
                    <mxGeometry x="1150" y="595" width="100" height="34.38" as="geometry"/>
                </mxCell>
                <mxCell id="295" value="برآورد هزینه&amp;nbsp;" style="whiteSpace=wrap;html=1;fontColor=#ffffff;strokeColor=#2D7600;fillColor=#60a917;" parent="4" vertex="1">
                    <mxGeometry x="1320" y="594.69" width="90" height="34.69" as="geometry"/>
                </mxCell>
                <mxCell id="296" value="" style="edgeStyle=orthogonalEdgeStyle;rounded=0;orthogonalLoop=1;jettySize=auto;html=1;" parent="4" source="294" target="295" edge="1">
                    <mxGeometry relative="1" as="geometry"/>
                </mxCell>
                <mxCell id="345" style="edgeStyle=orthogonalEdgeStyle;rounded=0;orthogonalLoop=1;jettySize=auto;html=1;exitX=1;exitY=0.5;exitDx=0;exitDy=0;entryX=0;entryY=0.5;entryDx=0;entryDy=0;" parent="4" source="297" target="340" edge="1">
                    <mxGeometry relative="1" as="geometry"/>
                </mxCell>
                <mxCell id="297" value="مشخص کردن قیمت نهایی" style="whiteSpace=wrap;html=1;fontColor=#ffffff;strokeColor=#2D7600;fillColor=#60a917;" parent="4" vertex="1">
                    <mxGeometry x="1500" y="594.69" width="120" height="34.23" as="geometry"/>
                </mxCell>
                <mxCell id="298" value="" style="edgeStyle=orthogonalEdgeStyle;rounded=0;orthogonalLoop=1;jettySize=auto;html=1;" parent="4" source="295" target="297" edge="1">
                    <mxGeometry relative="1" as="geometry"/>
                </mxCell>
                <mxCell id="305" style="edgeStyle=orthogonalEdgeStyle;rounded=0;orthogonalLoop=1;jettySize=auto;html=1;exitX=1;exitY=0.5;exitDx=0;exitDy=0;entryX=0;entryY=0.5;entryDx=0;entryDy=0;" parent="4" source="7" target="210" edge="1">
                    <mxGeometry relative="1" as="geometry"/>
                </mxCell>
                <mxCell id="7" value="&lt;font style=&quot;font-size: 24px&quot;&gt;شروع&lt;/font&gt;" style="ellipse;whiteSpace=wrap;html=1;aspect=fixed;fillColor=#0050ef;strokeColor=#001DBC;fontColor=#ffffff;" parent="4" vertex="1">
                    <mxGeometry x="50" y="97.5" width="75" height="75" as="geometry"/>
                </mxCell>
                <mxCell id="309" style="edgeStyle=orthogonalEdgeStyle;rounded=0;orthogonalLoop=1;jettySize=auto;html=1;exitX=0.5;exitY=1;exitDx=0;exitDy=0;entryX=0.5;entryY=1;entryDx=0;entryDy=0;" parent="4" source="307" target="215" edge="1">
                    <mxGeometry relative="1" as="geometry">
                        <mxPoint x="1040" y="75" as="targetPoint"/>
                    </mxGeometry>
                </mxCell>
                <mxCell id="313" style="edgeStyle=orthogonalEdgeStyle;rounded=0;orthogonalLoop=1;jettySize=auto;html=1;exitX=1;exitY=0.5;exitDx=0;exitDy=0;entryX=0.5;entryY=0;entryDx=0;entryDy=0;" parent="4" source="307" target="36" edge="1">
                    <mxGeometry relative="1" as="geometry"/>
                </mxCell>
                <mxCell id="307" value="آیا نیاز به اضافه کدن فرد خاصی هست&amp;nbsp;" style="rhombus;whiteSpace=wrap;html=1;fontColor=#ffffff;strokeColor=#6F0000;fillColor=#a20025;" parent="4" vertex="1">
                    <mxGeometry x="1805" y="17.169999999999998" width="130" height="102.51" as="geometry"/>
                </mxCell>
                <mxCell id="310" value="&lt;font color=&quot;#000000&quot;&gt;بله&lt;/font&gt;" style="text;html=1;strokeColor=none;fillColor=none;align=center;verticalAlign=middle;whiteSpace=wrap;rounded=0;" parent="4" vertex="1">
                    <mxGeometry x="1830" y="105" width="40" height="20" as="geometry"/>
                </mxCell>
                <mxCell id="36" value="پایان" style="ellipse;whiteSpace=wrap;html=1;rounded=0;fillColor=#0050ef;strokeColor=#001DBC;fontColor=#ffffff;" parent="4" vertex="1">
                    <mxGeometry x="2080" y="195" width="65" height="60" as="geometry"/>
                </mxCell>
                <mxCell id="321" style="edgeStyle=orthogonalEdgeStyle;rounded=0;orthogonalLoop=1;jettySize=auto;html=1;exitX=0.5;exitY=1;exitDx=0;exitDy=0;entryX=0.5;entryY=1;entryDx=0;entryDy=0;" parent="4" source="315" target="239" edge="1">
                    <mxGeometry relative="1" as="geometry"/>
                </mxCell>
                <mxCell id="329" style="edgeStyle=orthogonalEdgeStyle;rounded=0;orthogonalLoop=1;jettySize=auto;html=1;exitX=1;exitY=0.5;exitDx=0;exitDy=0;entryX=0;entryY=0.5;entryDx=0;entryDy=0;" parent="4" source="315" target="36" edge="1">
                    <mxGeometry relative="1" as="geometry"/>
                </mxCell>
                <mxCell id="315" value="آیا نیاز به اضافه کدن فرد خاصی هست&amp;nbsp;" style="rhombus;whiteSpace=wrap;html=1;fontColor=#ffffff;strokeColor=#6F0000;fillColor=#a20025;" parent="4" vertex="1">
                    <mxGeometry x="1780" y="150.55" width="130" height="102.51" as="geometry"/>
                </mxCell>
                <mxCell id="328" style="edgeStyle=orthogonalEdgeStyle;rounded=0;orthogonalLoop=1;jettySize=auto;html=1;exitX=0.5;exitY=1;exitDx=0;exitDy=0;entryX=0.5;entryY=1;entryDx=0;entryDy=0;" parent="4" source="323" target="260" edge="1">
                    <mxGeometry relative="1" as="geometry"/>
                </mxCell>
                <mxCell id="331" style="edgeStyle=orthogonalEdgeStyle;rounded=0;orthogonalLoop=1;jettySize=auto;html=1;exitX=1;exitY=0.5;exitDx=0;exitDy=0;entryX=0;entryY=0.5;entryDx=0;entryDy=0;" parent="4" source="323" target="36" edge="1">
                    <mxGeometry relative="1" as="geometry"/>
                </mxCell>
                <mxCell id="323" value="آیا نیاز به اضافه کدن فرد خاصی هست&amp;nbsp;" style="rhombus;whiteSpace=wrap;html=1;fontColor=#ffffff;strokeColor=#6F0000;fillColor=#a20025;" parent="4" vertex="1">
                    <mxGeometry x="1675" y="284.06999999999994" width="130" height="102.51" as="geometry"/>
                </mxCell>
                <mxCell id="325" value="&lt;font color=&quot;#000000&quot;&gt;بله&lt;/font&gt;" style="text;html=1;strokeColor=none;fillColor=none;align=center;verticalAlign=middle;whiteSpace=wrap;rounded=0;" parent="4" vertex="1">
                    <mxGeometry x="1690" y="384.99999999999994" width="40" height="20" as="geometry"/>
                </mxCell>
                <mxCell id="338" style="edgeStyle=orthogonalEdgeStyle;rounded=0;orthogonalLoop=1;jettySize=auto;html=1;exitX=0.5;exitY=1;exitDx=0;exitDy=0;entryX=0.5;entryY=1;entryDx=0;entryDy=0;" parent="4" source="333" target="278" edge="1">
                    <mxGeometry relative="1" as="geometry"/>
                </mxCell>
                <mxCell id="339" style="edgeStyle=orthogonalEdgeStyle;rounded=0;orthogonalLoop=1;jettySize=auto;html=1;exitX=1;exitY=0.5;exitDx=0;exitDy=0;entryX=0;entryY=1;entryDx=0;entryDy=0;" parent="4" source="333" target="36" edge="1">
                    <mxGeometry relative="1" as="geometry"/>
                </mxCell>
                <mxCell id="333" value="آیا نیاز به اضافه کدن فرد خاصی هست&amp;nbsp;" style="rhombus;whiteSpace=wrap;html=1;fontColor=#ffffff;strokeColor=#6F0000;fillColor=#a20025;" parent="4" vertex="1">
                    <mxGeometry x="1720" y="425" width="130" height="102.51" as="geometry"/>
                </mxCell>
                <mxCell id="334" value="&lt;font color=&quot;#000000&quot;&gt;بله&lt;/font&gt;" style="text;html=1;strokeColor=none;fillColor=none;align=center;verticalAlign=middle;whiteSpace=wrap;rounded=0;" parent="4" vertex="1">
                    <mxGeometry x="1730" y="527.51" width="40" height="20" as="geometry"/>
                </mxCell>
                <mxCell id="335" value="&lt;font color=&quot;#000000&quot;&gt;خیر&lt;/font&gt;" style="text;html=1;strokeColor=none;fillColor=none;align=center;verticalAlign=middle;whiteSpace=wrap;rounded=0;" parent="4" vertex="1">
                    <mxGeometry x="1850" y="425" width="40" height="37.51" as="geometry"/>
                </mxCell>
                <mxCell id="344" style="edgeStyle=orthogonalEdgeStyle;rounded=0;orthogonalLoop=1;jettySize=auto;html=1;exitX=0.5;exitY=1;exitDx=0;exitDy=0;entryX=0.5;entryY=1;entryDx=0;entryDy=0;" parent="4" source="340" target="293" edge="1">
                    <mxGeometry relative="1" as="geometry"/>
                </mxCell>
                <mxCell id="340" value="آیا نیاز به اضافه کدن فرد خاصی هست&amp;nbsp;" style="rhombus;whiteSpace=wrap;html=1;fontColor=#ffffff;strokeColor=#6F0000;fillColor=#a20025;" parent="4" vertex="1">
                    <mxGeometry x="1710" y="567.49" width="130" height="92.51" as="geometry"/>
                </mxCell>
                <mxCell id="341" value="&lt;font color=&quot;#000000&quot;&gt;بله&lt;/font&gt;" style="text;html=1;strokeColor=none;fillColor=none;align=center;verticalAlign=middle;whiteSpace=wrap;rounded=0;" parent="4" vertex="1">
                    <mxGeometry x="1720" y="655" width="40" height="20" as="geometry"/>
                </mxCell>
                <mxCell id="342" value="&lt;font color=&quot;#000000&quot;&gt;خیر&lt;/font&gt;" style="text;html=1;strokeColor=none;fillColor=none;align=center;verticalAlign=middle;whiteSpace=wrap;rounded=0;" parent="4" vertex="1">
                    <mxGeometry x="1850" y="585" width="40" height="20" as="geometry"/>
                </mxCell>
                <mxCell id="358" style="edgeStyle=orthogonalEdgeStyle;rounded=0;orthogonalLoop=1;jettySize=auto;html=1;exitX=1;exitY=0.5;exitDx=0;exitDy=0;" parent="4" source="348" target="obBfX_c-ooc2OHzCGnZm-218" edge="1">
                    <mxGeometry relative="1" as="geometry"/>
                </mxCell>
                <mxCell id="359" style="edgeStyle=orthogonalEdgeStyle;rounded=0;orthogonalLoop=1;jettySize=auto;html=1;exitX=1;exitY=0.5;exitDx=0;exitDy=0;entryX=0;entryY=0.5;entryDx=0;entryDy=0;" parent="4" source="348" target="obBfX_c-ooc2OHzCGnZm-220" edge="1">
                    <mxGeometry relative="1" as="geometry">
                        <Array as="points">
                            <mxPoint x="570" y="745"/>
                            <mxPoint x="570" y="915"/>
                            <mxPoint x="670" y="915"/>
                        </Array>
                    </mxGeometry>
                </mxCell>
                <mxCell id="348" value="لیزینگ و بازاریاب" style="whiteSpace=wrap;html=1;fontColor=#ffffff;strokeColor=#2D7600;fillColor=#60a917;" parent="4" vertex="1">
                    <mxGeometry x="380" y="715" width="120" height="60" as="geometry"/>
                </mxCell>
                <mxCell id="353" value="" style="edgeStyle=orthogonalEdgeStyle;rounded=0;orthogonalLoop=1;jettySize=auto;html=1;" parent="4" source="350" target="352" edge="1">
                    <mxGeometry relative="1" as="geometry"/>
                </mxCell>
                <mxCell id="350" value="انتخب بازاریاب" style="whiteSpace=wrap;html=1;fontColor=#ffffff;strokeColor=#2D7600;fillColor=#60a917;" parent="4" vertex="1">
                    <mxGeometry x="840" y="736.25" width="120" height="32.5" as="geometry"/>
                </mxCell>
                <mxCell id="361" value="" style="edgeStyle=orthogonalEdgeStyle;rounded=0;orthogonalLoop=1;jettySize=auto;html=1;" parent="4" source="352" target="360" edge="1">
                    <mxGeometry relative="1" as="geometry"/>
                </mxCell>
                <mxCell id="352" value="کمسیون بازاریاب از خدمات پستی" style="whiteSpace=wrap;html=1;fontColor=#ffffff;strokeColor=#2D7600;fillColor=#60a917;" parent="4" vertex="1">
                    <mxGeometry x="1040" y="736.25" width="120" height="32.5" as="geometry"/>
                </mxCell>
                <mxCell id="363" value="" style="edgeStyle=orthogonalEdgeStyle;rounded=0;orthogonalLoop=1;jettySize=auto;html=1;" parent="4" source="360" target="362" edge="1">
                    <mxGeometry relative="1" as="geometry"/>
                </mxCell>
                <mxCell id="360" value="کمیسون از خدمات لیزینگ" style="whiteSpace=wrap;html=1;fontColor=#ffffff;strokeColor=#2D7600;fillColor=#60a917;" parent="4" vertex="1">
                    <mxGeometry x="1230" y="731.25" width="120" height="42.5" as="geometry"/>
                </mxCell>
                <mxCell id="366" style="edgeStyle=orthogonalEdgeStyle;rounded=0;orthogonalLoop=1;jettySize=auto;html=1;exitX=0.5;exitY=1;exitDx=0;exitDy=0;entryX=0.25;entryY=1;entryDx=0;entryDy=0;" parent="4" source="362" target="350" edge="1">
                    <mxGeometry relative="1" as="geometry"/>
                </mxCell>
                <mxCell id="368" style="edgeStyle=orthogonalEdgeStyle;rounded=0;orthogonalLoop=1;jettySize=auto;html=1;exitX=1;exitY=0.5;exitDx=0;exitDy=0;entryX=0.5;entryY=1;entryDx=0;entryDy=0;" parent="4" source="362" target="36" edge="1">
                    <mxGeometry relative="1" as="geometry"/>
                </mxCell>
                <mxCell id="362" value="نیاز به کاربر دیگه هست&amp;nbsp;" style="rhombus;whiteSpace=wrap;html=1;fontColor=#ffffff;strokeColor=#6F0000;fillColor=#a20025;" parent="4" vertex="1">
                    <mxGeometry x="1400" y="706.25" width="100" height="92.5" as="geometry"/>
                </mxCell>
                <mxCell id="372" value="انتخب بازاریاب" style="whiteSpace=wrap;html=1;fontColor=#ffffff;strokeColor=#2D7600;fillColor=#60a917;" parent="4" vertex="1">
                    <mxGeometry x="835" y="885" width="120" height="32.5" as="geometry"/>
                </mxCell>
                <mxCell id="374" value="کمسیون بازاریاب از خدمات پستی" style="whiteSpace=wrap;html=1;fontColor=#ffffff;strokeColor=#2D7600;fillColor=#60a917;" parent="4" vertex="1">
                    <mxGeometry x="1035" y="885" width="120" height="32.5" as="geometry"/>
                </mxCell>
                <mxCell id="371" value="" style="edgeStyle=orthogonalEdgeStyle;rounded=0;orthogonalLoop=1;jettySize=auto;html=1;" parent="4" source="372" target="374" edge="1">
                    <mxGeometry relative="1" as="geometry"/>
                </mxCell>
                <mxCell id="376" value="کمیسون از خدمات لیزینگ" style="whiteSpace=wrap;html=1;fontColor=#ffffff;strokeColor=#2D7600;fillColor=#60a917;" parent="4" vertex="1">
                    <mxGeometry x="1225" y="880" width="120" height="42.5" as="geometry"/>
                </mxCell>
                <mxCell id="373" value="" style="edgeStyle=orthogonalEdgeStyle;rounded=0;orthogonalLoop=1;jettySize=auto;html=1;" parent="4" source="374" target="376" edge="1">
                    <mxGeometry relative="1" as="geometry"/>
                </mxCell>
                <mxCell id="377" style="edgeStyle=orthogonalEdgeStyle;rounded=0;orthogonalLoop=1;jettySize=auto;html=1;exitX=0.5;exitY=1;exitDx=0;exitDy=0;entryX=0.25;entryY=1;entryDx=0;entryDy=0;" parent="4" source="378" target="372" edge="1">
                    <mxGeometry relative="1" as="geometry"/>
                </mxCell>
                <mxCell id="382" style="edgeStyle=orthogonalEdgeStyle;rounded=0;orthogonalLoop=1;jettySize=auto;html=1;exitX=1;exitY=0.5;exitDx=0;exitDy=0;entryX=0.5;entryY=1;entryDx=0;entryDy=0;" parent="4" source="378" target="36" edge="1">
                    <mxGeometry relative="1" as="geometry"/>
                </mxCell>
                <mxCell id="378" value="نیاز به کاربر دیگه هست&amp;nbsp;" style="rhombus;whiteSpace=wrap;html=1;fontColor=#ffffff;strokeColor=#6F0000;fillColor=#a20025;" parent="4" vertex="1">
                    <mxGeometry x="1395" y="855" width="100" height="92.5" as="geometry"/>
                </mxCell>
                <mxCell id="375" value="" style="edgeStyle=orthogonalEdgeStyle;rounded=0;orthogonalLoop=1;jettySize=auto;html=1;" parent="4" source="376" target="378" edge="1">
                    <mxGeometry relative="1" as="geometry"/>
                </mxCell>
                <mxCell id="379" value="&lt;font color=&quot;#000000&quot;&gt;بله&lt;/font&gt;" style="text;html=1;strokeColor=none;fillColor=none;align=center;verticalAlign=middle;whiteSpace=wrap;rounded=0;" parent="4" vertex="1">
                    <mxGeometry x="1365" y="943.75" width="40" height="20" as="geometry"/>
                </mxCell>
                <mxCell id="380" value="&lt;font color=&quot;#000000&quot;&gt;خیر&lt;/font&gt;" style="text;html=1;strokeColor=none;fillColor=none;align=center;verticalAlign=middle;whiteSpace=wrap;rounded=0;" parent="4" vertex="1">
                    <mxGeometry x="1520" y="868.75" width="40" height="20" as="geometry"/>
                </mxCell>
                <mxCell id="386" value="" style="edgeStyle=orthogonalEdgeStyle;rounded=0;orthogonalLoop=1;jettySize=auto;html=1;" parent="4" source="384" target="385" edge="1">
                    <mxGeometry relative="1" as="geometry"/>
                </mxCell>
                <mxCell id="384" value="قرار داد COD" style="whiteSpace=wrap;html=1;fontColor=#ffffff;strokeColor=#2D7600;fillColor=#60a917;" parent="4" vertex="1">
                    <mxGeometry x="380" y="1055" width="120" height="60" as="geometry"/>
                </mxCell>
                <mxCell id="394" value="" style="edgeStyle=orthogonalEdgeStyle;rounded=0;orthogonalLoop=1;jettySize=auto;html=1;" parent="4" source="385" target="393" edge="1">
                    <mxGeometry relative="1" as="geometry"/>
                </mxCell>
                <mxCell id="385" value="بررسی کیف پول&amp;nbsp;" style="whiteSpace=wrap;html=1;fontColor=#ffffff;strokeColor=#2D7600;fillColor=#60a917;" parent="4" vertex="1">
                    <mxGeometry x="590" y="1055" width="120" height="60" as="geometry"/>
                </mxCell>
                <mxCell id="403" style="edgeStyle=orthogonalEdgeStyle;rounded=0;orthogonalLoop=1;jettySize=auto;html=1;exitX=1;exitY=0.5;exitDx=0;exitDy=0;entryX=0.5;entryY=1;entryDx=0;entryDy=0;" parent="4" source="387" target="36" edge="1">
                    <mxGeometry relative="1" as="geometry"/>
                </mxCell>
                <mxCell id="387" value="منفی کردن کیف پول&amp;nbsp;" style="whiteSpace=wrap;html=1;fontColor=#ffffff;strokeColor=#2D7600;fillColor=#60a917;" parent="4" vertex="1">
                    <mxGeometry x="970" y="1055" width="120" height="60" as="geometry"/>
                </mxCell>
                <mxCell id="395" value="" style="edgeStyle=orthogonalEdgeStyle;rounded=0;orthogonalLoop=1;jettySize=auto;html=1;" parent="4" source="393" target="387" edge="1">
                    <mxGeometry relative="1" as="geometry"/>
                </mxCell>
                <mxCell id="397" value="" style="edgeStyle=orthogonalEdgeStyle;rounded=0;orthogonalLoop=1;jettySize=auto;html=1;" parent="4" source="393" target="396" edge="1">
                    <mxGeometry relative="1" as="geometry"/>
                </mxCell>
                <mxCell id="393" value="شارژ دارد&amp;nbsp;" style="rhombus;whiteSpace=wrap;html=1;fontColor=#ffffff;strokeColor=#6F0000;fillColor=#a20025;" parent="4" vertex="1">
                    <mxGeometry x="790" y="1045" width="80" height="80" as="geometry"/>
                </mxCell>
                <mxCell id="396" value="اجازه ثبت سفارش ندارد&amp;nbsp;" style="whiteSpace=wrap;html=1;fontColor=#ffffff;strokeColor=#2D7600;fillColor=#60a917;" parent="4" vertex="1">
                    <mxGeometry x="770" y="1165" width="120" height="60" as="geometry"/>
                </mxCell>
                <mxCell id="398" value="بله" style="text;html=1;strokeColor=none;fillColor=none;align=center;verticalAlign=middle;whiteSpace=wrap;rounded=0;" parent="4" vertex="1">
                    <mxGeometry x="920" y="1055" width="40" height="20" as="geometry"/>
                </mxCell>
                <mxCell id="404" style="edgeStyle=orthogonalEdgeStyle;rounded=0;orthogonalLoop=1;jettySize=auto;html=1;exitX=1;exitY=0.5;exitDx=0;exitDy=0;entryX=0;entryY=0.5;entryDx=0;entryDy=0;" parent="4" source="210" target="384" edge="1">
                    <mxGeometry relative="1" as="geometry">
                        <mxPoint x="350.0000000000002" y="305" as="targetPoint"/>
                    </mxGeometry>
                </mxCell>
                <mxCell id="319" value="&lt;font color=&quot;#000000&quot;&gt;خیر&lt;/font&gt;" style="text;html=1;strokeColor=none;fillColor=none;align=center;verticalAlign=middle;whiteSpace=wrap;rounded=0;" parent="4" vertex="1">
                    <mxGeometry x="1920" y="77.5" width="40" height="20" as="geometry"/>
                </mxCell>
                <mxCell id="408" value="" style="edgeStyle=none;html=1;" edge="1" parent="4" source="405" target="406">
                    <mxGeometry relative="1" as="geometry"/>
                </mxCell>
                <mxCell id="405" value="سایز بسته" style="whiteSpace=wrap;html=1;fontColor=#ffffff;strokeColor=#2D7600;fillColor=#60a917;" vertex="1" parent="4">
                    <mxGeometry x="850" y="47.88" width="70" height="35" as="geometry"/>
                </mxCell>
                <mxCell id="409" value="" style="edgeStyle=none;html=1;" edge="1" parent="4" source="406" target="215">
                    <mxGeometry relative="1" as="geometry"/>
                </mxCell>
                <mxCell id="406" value="شهر محل جمع آوری" style="whiteSpace=wrap;html=1;fontColor=#ffffff;strokeColor=#2D7600;fillColor=#60a917;" vertex="1" parent="4">
                    <mxGeometry x="990" y="47.88" width="90" height="35" as="geometry"/>
                </mxCell>
                <mxCell id="410" value="سایز بسته" style="whiteSpace=wrap;html=1;fontColor=#ffffff;strokeColor=#2D7600;fillColor=#60a917;" vertex="1" parent="4">
                    <mxGeometry x="865" y="185.01" width="70" height="35" as="geometry"/>
                </mxCell>
                <mxCell id="415" value="" style="edgeStyle=none;html=1;" edge="1" parent="4" source="413" target="278">
                    <mxGeometry relative="1" as="geometry"/>
                </mxCell>
                <mxCell id="413" value="نوع کاغذ" style="whiteSpace=wrap;html=1;fillColor=#60a917;strokeColor=#2D7600;fontColor=#ffffff;" vertex="1" parent="4">
                    <mxGeometry x="815" y="447.5" width="65" height="32.5" as="geometry"/>
                </mxCell>
                <mxCell id="416" value="لوکیشن انبار" style="whiteSpace=wrap;html=1;fillColor=#60a917;strokeColor=#2D7600;fontColor=#ffffff;" vertex="1" parent="4">
                    <mxGeometry x="825" y="595" width="65" height="32.5" as="geometry"/>
                </mxCell>
                <mxCell id="417" value="" style="edgeStyle=orthogonalEdgeStyle;rounded=0;orthogonalLoop=1;jettySize=auto;html=1;exitX=1;exitY=0.5;exitDx=0;exitDy=0;endArrow=none;" edge="1" parent="4" source="obBfX_c-ooc2OHzCGnZm-217" target="416">
                    <mxGeometry relative="1" as="geometry">
                        <mxPoint x="880" y="884.3799999999999" as="sourcePoint"/>
                        <mxPoint x="1075" y="886.8571428571429" as="targetPoint"/>
                    </mxGeometry>
                </mxCell>
                <mxCell id="318" value="&lt;font color=&quot;#000000&quot;&gt;بله&lt;/font&gt;" style="text;html=1;strokeColor=none;fillColor=none;align=center;verticalAlign=middle;whiteSpace=wrap;rounded=0;" parent="1" vertex="1">
                    <mxGeometry x="1920" y="570" width="40" height="20" as="geometry"/>
                </mxCell>
                <mxCell id="330" value="&lt;font color=&quot;#000000&quot;&gt;خیر&lt;/font&gt;" style="text;html=1;strokeColor=none;fillColor=none;align=center;verticalAlign=middle;whiteSpace=wrap;rounded=0;" parent="1" vertex="1">
                    <mxGeometry x="2060" y="480" width="40" height="20" as="geometry"/>
                </mxCell>
                <mxCell id="332" value="&lt;font color=&quot;#000000&quot;&gt;خیر&lt;/font&gt;" style="text;html=1;strokeColor=none;fillColor=none;align=center;verticalAlign=middle;whiteSpace=wrap;rounded=0;" parent="1" vertex="1">
                    <mxGeometry x="1990" y="610" width="40" height="20" as="geometry"/>
                </mxCell>
                <mxCell id="346" style="edgeStyle=orthogonalEdgeStyle;rounded=0;orthogonalLoop=1;jettySize=auto;html=1;exitX=1;exitY=0.5;exitDx=0;exitDy=0;" parent="1" source="340" edge="1">
                    <mxGeometry relative="1" as="geometry">
                        <mxPoint x="2210" y="560" as="targetPoint"/>
                    </mxGeometry>
                </mxCell>
                <mxCell id="367" value="&lt;font color=&quot;#000000&quot;&gt;بله&lt;/font&gt;" style="text;html=1;strokeColor=none;fillColor=none;align=center;verticalAlign=middle;whiteSpace=wrap;rounded=0;" parent="1" vertex="1">
                    <mxGeometry x="1490" y="1100" width="40" height="20" as="geometry"/>
                </mxCell>
                <mxCell id="369" value="&lt;font color=&quot;#000000&quot;&gt;خیر&lt;/font&gt;" style="text;html=1;strokeColor=none;fillColor=none;align=center;verticalAlign=middle;whiteSpace=wrap;rounded=0;" parent="1" vertex="1">
                    <mxGeometry x="1650" y="1040" width="40" height="20" as="geometry"/>
                </mxCell>
                <mxCell id="400" value="خیر" style="text;html=1;strokeColor=none;fillColor=none;align=center;verticalAlign=middle;whiteSpace=wrap;rounded=0;" parent="1" vertex="1">
                    <mxGeometry x="960" y="1400" width="40" height="20" as="geometry"/>
                </mxCell>
            </root>
        </mxGraphModel>
    </diagram>
    <diagram id="9YOEF9CEAczT_-_ygEmO" name="cod">
        <mxGraphModel dx="820" dy="575" grid="1" gridSize="10" guides="1" tooltips="1" connect="1" arrows="1" fold="1" page="1" pageScale="1" pageWidth="2336" pageHeight="1654" math="0" shadow="0">
            <root>
                <mxCell id="6-kH1bkSdVMrU8_aLlKb-0"/>
                <mxCell id="6-kH1bkSdVMrU8_aLlKb-1" parent="6-kH1bkSdVMrU8_aLlKb-0"/>
                <mxCell id="K4cyZv8H0wW2V2rLuBcf-0" value="Order" style="swimlane;childLayout=stackLayout;resizeParent=1;resizeParentMax=0;horizontal=0;startSize=20;horizontalStack=0;strokeColor=#000000;" parent="6-kH1bkSdVMrU8_aLlKb-1" vertex="1">
                    <mxGeometry x="50" y="220" width="2160" height="1140" as="geometry"/>
                </mxCell>
                <mxCell id="K4cyZv8H0wW2V2rLuBcf-1" value="customer" style="swimlane;startSize=20;horizontal=0;" parent="K4cyZv8H0wW2V2rLuBcf-0" vertex="1">
                    <mxGeometry x="20" width="2140" height="290" as="geometry">
                        <mxRectangle x="20" width="1860" height="20" as="alternateBounds"/>
                    </mxGeometry>
                </mxCell>
                <mxCell id="K4cyZv8H0wW2V2rLuBcf-2" value="" style="edgeStyle=orthogonalEdgeStyle;rounded=0;orthogonalLoop=1;jettySize=auto;html=1;" parent="K4cyZv8H0wW2V2rLuBcf-1" source="K4cyZv8H0wW2V2rLuBcf-3" target="K4cyZv8H0wW2V2rLuBcf-5" edge="1">
                    <mxGeometry relative="1" as="geometry"/>
                </mxCell>
                <mxCell id="K4cyZv8H0wW2V2rLuBcf-3" value="&lt;font style=&quot;font-size: 24px&quot;&gt;شروع&lt;/font&gt;" style="ellipse;whiteSpace=wrap;html=1;aspect=fixed;fillColor=#0050ef;strokeColor=#001DBC;fontColor=#ffffff;" parent="K4cyZv8H0wW2V2rLuBcf-1" vertex="1">
                    <mxGeometry x="40" y="75" width="75" height="75" as="geometry"/>
                </mxCell>
                <mxCell id="K4cyZv8H0wW2V2rLuBcf-5" value="&lt;font style=&quot;font-size: 15px&quot;&gt;تماس برای اعمال قرارداد&lt;/font&gt;" style="whiteSpace=wrap;html=1;fillColor=#60a917;strokeColor=#2D7600;fontColor=#ffffff;" parent="K4cyZv8H0wW2V2rLuBcf-1" vertex="1">
                    <mxGeometry x="150" y="77.5" width="130" height="70" as="geometry"/>
                </mxCell>
                <mxCell id="K4cyZv8H0wW2V2rLuBcf-21" value="پایان" style="ellipse;whiteSpace=wrap;html=1;rounded=0;fillColor=#0050ef;strokeColor=#001DBC;fontColor=#ffffff;" parent="K4cyZv8H0wW2V2rLuBcf-1" vertex="1">
                    <mxGeometry x="2020" y="150" width="65" height="60" as="geometry"/>
                </mxCell>
                <mxCell id="K4cyZv8H0wW2V2rLuBcf-14" value="Postex" style="swimlane;startSize=20;horizontal=0;" parent="K4cyZv8H0wW2V2rLuBcf-0" vertex="1">
                    <mxGeometry x="20" y="290" width="2140" height="850" as="geometry"/>
                </mxCell>
                <mxCell id="Ck6tV_7qu25ByQV0ORCY-14" style="edgeStyle=orthogonalEdgeStyle;rounded=0;orthogonalLoop=1;jettySize=auto;html=1;exitX=1;exitY=0.5;exitDx=0;exitDy=0;entryX=0;entryY=0.5;entryDx=0;entryDy=0;" parent="K4cyZv8H0wW2V2rLuBcf-14" source="Ck6tV_7qu25ByQV0ORCY-0" target="Ck6tV_7qu25ByQV0ORCY-12" edge="1">
                    <mxGeometry relative="1" as="geometry"/>
                </mxCell>
                <mxCell id="Ck6tV_7qu25ByQV0ORCY-0" value="بررسی جهت اعمال پنل قرارداد&lt;br&gt;" style="whiteSpace=wrap;html=1;fontColor=#ffffff;strokeColor=#2D7600;fillColor=#60a917;" parent="K4cyZv8H0wW2V2rLuBcf-14" vertex="1">
                    <mxGeometry x="30" y="200" width="155" height="60" as="geometry"/>
                </mxCell>
                <mxCell id="Ck6tV_7qu25ByQV0ORCY-21" value="" style="edgeStyle=orthogonalEdgeStyle;rounded=0;orthogonalLoop=1;jettySize=auto;html=1;" parent="K4cyZv8H0wW2V2rLuBcf-14" source="Ck6tV_7qu25ByQV0ORCY-2" target="Ck6tV_7qu25ByQV0ORCY-20" edge="1">
                    <mxGeometry relative="1" as="geometry"/>
                </mxCell>
                <mxCell id="Ck6tV_7qu25ByQV0ORCY-2" value="جمع آوری" style="whiteSpace=wrap;html=1;fontColor=#ffffff;strokeColor=#2D7600;fillColor=#60a917;" parent="K4cyZv8H0wW2V2rLuBcf-14" vertex="1">
                    <mxGeometry x="460" y="10" width="120" height="30" as="geometry"/>
                </mxCell>
                <mxCell id="Ck6tV_7qu25ByQV0ORCY-7" value="" style="whiteSpace=wrap;html=1;fontColor=#ffffff;strokeColor=#2D7600;fillColor=#60a917;" parent="K4cyZv8H0wW2V2rLuBcf-14" vertex="1">
                    <mxGeometry x="440" y="600" width="120" height="40" as="geometry"/>
                </mxCell>
                <mxCell id="Ck6tV_7qu25ByQV0ORCY-132" style="edgeStyle=orthogonalEdgeStyle;rounded=0;orthogonalLoop=1;jettySize=auto;html=1;exitX=1;exitY=0.5;exitDx=0;exitDy=0;entryX=0;entryY=0.75;entryDx=0;entryDy=0;" parent="K4cyZv8H0wW2V2rLuBcf-14" source="Ck6tV_7qu25ByQV0ORCY-6" target="Ck6tV_7qu25ByQV0ORCY-115" edge="1">
                    <mxGeometry relative="1" as="geometry"/>
                </mxCell>
                <mxCell id="Ck6tV_7qu25ByQV0ORCY-6" value="انبار" style="whiteSpace=wrap;html=1;fontColor=#ffffff;strokeColor=#2D7600;fillColor=#60a917;" parent="K4cyZv8H0wW2V2rLuBcf-14" vertex="1">
                    <mxGeometry x="460" y="540" width="120" height="30" as="geometry"/>
                </mxCell>
                <mxCell id="Ck6tV_7qu25ByQV0ORCY-131" style="edgeStyle=orthogonalEdgeStyle;rounded=0;orthogonalLoop=1;jettySize=auto;html=1;exitX=1;exitY=0.5;exitDx=0;exitDy=0;" parent="K4cyZv8H0wW2V2rLuBcf-14" source="Ck6tV_7qu25ByQV0ORCY-5" target="Ck6tV_7qu25ByQV0ORCY-102" edge="1">
                    <mxGeometry relative="1" as="geometry"/>
                </mxCell>
                <mxCell id="Ck6tV_7qu25ByQV0ORCY-5" value="ثبت سفارش" style="whiteSpace=wrap;html=1;fontColor=#ffffff;strokeColor=#2D7600;fillColor=#60a917;" parent="K4cyZv8H0wW2V2rLuBcf-14" vertex="1">
                    <mxGeometry x="460" y="405" width="120" height="40" as="geometry"/>
                </mxCell>
                <mxCell id="Ck6tV_7qu25ByQV0ORCY-95" style="edgeStyle=orthogonalEdgeStyle;rounded=0;orthogonalLoop=1;jettySize=auto;html=1;exitX=1;exitY=0.5;exitDx=0;exitDy=0;entryX=0;entryY=0.5;entryDx=0;entryDy=0;" parent="K4cyZv8H0wW2V2rLuBcf-14" source="Ck6tV_7qu25ByQV0ORCY-4" target="Ck6tV_7qu25ByQV0ORCY-84" edge="1">
                    <mxGeometry relative="1" as="geometry"/>
                </mxCell>
                <mxCell id="Ck6tV_7qu25ByQV0ORCY-4" value="پرینت" style="whiteSpace=wrap;html=1;fontColor=#ffffff;strokeColor=#2D7600;fillColor=#60a917;" parent="K4cyZv8H0wW2V2rLuBcf-14" vertex="1">
                    <mxGeometry x="450" y="287" width="120" height="30" as="geometry"/>
                </mxCell>
                <mxCell id="Ck6tV_7qu25ByQV0ORCY-57" style="edgeStyle=orthogonalEdgeStyle;rounded=0;orthogonalLoop=1;jettySize=auto;html=1;exitX=1;exitY=0.5;exitDx=0;exitDy=0;" parent="K4cyZv8H0wW2V2rLuBcf-14" source="Ck6tV_7qu25ByQV0ORCY-8" target="Ck6tV_7qu25ByQV0ORCY-34" edge="1">
                    <mxGeometry relative="1" as="geometry"/>
                </mxCell>
                <mxCell id="Ck6tV_7qu25ByQV0ORCY-8" value="کارتون و لفاف&amp;nbsp;" style="whiteSpace=wrap;html=1;fontColor=#ffffff;strokeColor=#2D7600;fillColor=#60a917;" parent="K4cyZv8H0wW2V2rLuBcf-14" vertex="1">
                    <mxGeometry x="460" y="110" width="120" height="30" as="geometry"/>
                </mxCell>
                <mxCell id="Ck6tV_7qu25ByQV0ORCY-11" value="" style="whiteSpace=wrap;html=1;fontColor=#ffffff;strokeColor=#2D7600;fillColor=#60a917;" parent="K4cyZv8H0wW2V2rLuBcf-14" vertex="1">
                    <mxGeometry x="450" y="770" width="120" height="40" as="geometry"/>
                </mxCell>
                <mxCell id="Ck6tV_7qu25ByQV0ORCY-10" value="" style="whiteSpace=wrap;html=1;fontColor=#ffffff;strokeColor=#2D7600;fillColor=#60a917;" parent="K4cyZv8H0wW2V2rLuBcf-14" vertex="1">
                    <mxGeometry x="440" y="700" width="120" height="40" as="geometry"/>
                </mxCell>
                <mxCell id="Ck6tV_7qu25ByQV0ORCY-15" style="edgeStyle=orthogonalEdgeStyle;rounded=0;orthogonalLoop=1;jettySize=auto;html=1;exitX=1;exitY=0.5;exitDx=0;exitDy=0;entryX=0;entryY=0.5;entryDx=0;entryDy=0;" parent="K4cyZv8H0wW2V2rLuBcf-14" source="Ck6tV_7qu25ByQV0ORCY-12" target="Ck6tV_7qu25ByQV0ORCY-2" edge="1">
                    <mxGeometry relative="1" as="geometry"/>
                </mxCell>
                <mxCell id="Ck6tV_7qu25ByQV0ORCY-16" style="edgeStyle=orthogonalEdgeStyle;rounded=0;orthogonalLoop=1;jettySize=auto;html=1;exitX=1;exitY=0.5;exitDx=0;exitDy=0;entryX=0;entryY=0.5;entryDx=0;entryDy=0;" parent="K4cyZv8H0wW2V2rLuBcf-14" source="Ck6tV_7qu25ByQV0ORCY-12" target="Ck6tV_7qu25ByQV0ORCY-8" edge="1">
                    <mxGeometry relative="1" as="geometry"/>
                </mxCell>
                <mxCell id="Ck6tV_7qu25ByQV0ORCY-17" style="edgeStyle=orthogonalEdgeStyle;rounded=0;orthogonalLoop=1;jettySize=auto;html=1;exitX=1;exitY=0.5;exitDx=0;exitDy=0;entryX=0;entryY=0.5;entryDx=0;entryDy=0;" parent="K4cyZv8H0wW2V2rLuBcf-14" source="Ck6tV_7qu25ByQV0ORCY-12" target="Ck6tV_7qu25ByQV0ORCY-4" edge="1">
                    <mxGeometry relative="1" as="geometry"/>
                </mxCell>
                <mxCell id="Ck6tV_7qu25ByQV0ORCY-18" style="edgeStyle=orthogonalEdgeStyle;rounded=0;orthogonalLoop=1;jettySize=auto;html=1;exitX=1;exitY=0.5;exitDx=0;exitDy=0;entryX=0;entryY=0.5;entryDx=0;entryDy=0;" parent="K4cyZv8H0wW2V2rLuBcf-14" source="Ck6tV_7qu25ByQV0ORCY-12" target="Ck6tV_7qu25ByQV0ORCY-5" edge="1">
                    <mxGeometry relative="1" as="geometry"/>
                </mxCell>
                <mxCell id="Ck6tV_7qu25ByQV0ORCY-19" style="edgeStyle=orthogonalEdgeStyle;rounded=0;orthogonalLoop=1;jettySize=auto;html=1;exitX=1;exitY=0.5;exitDx=0;exitDy=0;entryX=-0.005;entryY=0.608;entryDx=0;entryDy=0;entryPerimeter=0;" parent="K4cyZv8H0wW2V2rLuBcf-14" source="Ck6tV_7qu25ByQV0ORCY-12" target="Ck6tV_7qu25ByQV0ORCY-6" edge="1">
                    <mxGeometry relative="1" as="geometry"/>
                </mxCell>
                <mxCell id="Ck6tV_7qu25ByQV0ORCY-12" value="فنی و مهندسی&amp;nbsp;" style="whiteSpace=wrap;html=1;fontColor=#ffffff;strokeColor=#2D7600;fillColor=#60a917;" parent="K4cyZv8H0wW2V2rLuBcf-14" vertex="1">
                    <mxGeometry x="230" y="105" width="120" height="60" as="geometry"/>
                </mxCell>
                <mxCell id="Ck6tV_7qu25ByQV0ORCY-23" value="" style="edgeStyle=orthogonalEdgeStyle;rounded=0;orthogonalLoop=1;jettySize=auto;html=1;" parent="K4cyZv8H0wW2V2rLuBcf-14" source="Ck6tV_7qu25ByQV0ORCY-20" target="Ck6tV_7qu25ByQV0ORCY-22" edge="1">
                    <mxGeometry relative="1" as="geometry"/>
                </mxCell>
                <mxCell id="Ck6tV_7qu25ByQV0ORCY-20" value="انتخاب شخص پیمانکار" style="whiteSpace=wrap;html=1;fontColor=#ffffff;strokeColor=#2D7600;fillColor=#60a917;" parent="K4cyZv8H0wW2V2rLuBcf-14" vertex="1">
                    <mxGeometry x="660" y="7.5" width="120" height="35" as="geometry"/>
                </mxCell>
                <mxCell id="Ck6tV_7qu25ByQV0ORCY-25" value="" style="edgeStyle=orthogonalEdgeStyle;rounded=0;orthogonalLoop=1;jettySize=auto;html=1;" parent="K4cyZv8H0wW2V2rLuBcf-14" source="Ck6tV_7qu25ByQV0ORCY-22" target="Ck6tV_7qu25ByQV0ORCY-24" edge="1">
                    <mxGeometry relative="1" as="geometry"/>
                </mxCell>
                <mxCell id="Ck6tV_7qu25ByQV0ORCY-31" value="" style="edgeStyle=orthogonalEdgeStyle;rounded=0;orthogonalLoop=1;jettySize=auto;html=1;" parent="K4cyZv8H0wW2V2rLuBcf-14" source="Ck6tV_7qu25ByQV0ORCY-22" target="Ck6tV_7qu25ByQV0ORCY-30" edge="1">
                    <mxGeometry relative="1" as="geometry"/>
                </mxCell>
                <mxCell id="Ck6tV_7qu25ByQV0ORCY-22" value="&lt;font style=&quot;font-size: 10px&quot;&gt;داشتن رول جمع آور&lt;/font&gt;" style="rhombus;whiteSpace=wrap;html=1;fontColor=#ffffff;strokeColor=#6F0000;fillColor=#a20025;" parent="K4cyZv8H0wW2V2rLuBcf-14" vertex="1">
                    <mxGeometry x="850" y="7.5" width="70" height="52.5" as="geometry"/>
                </mxCell>
                <mxCell id="Ck6tV_7qu25ByQV0ORCY-27" value="" style="edgeStyle=orthogonalEdgeStyle;rounded=0;orthogonalLoop=1;jettySize=auto;html=1;" parent="K4cyZv8H0wW2V2rLuBcf-14" source="Ck6tV_7qu25ByQV0ORCY-24" target="Ck6tV_7qu25ByQV0ORCY-26" edge="1">
                    <mxGeometry relative="1" as="geometry"/>
                </mxCell>
                <mxCell id="Ck6tV_7qu25ByQV0ORCY-24" value="مشخص کردن فرد" style="whiteSpace=wrap;html=1;fontColor=#ffffff;strokeColor=#2D7600;fillColor=#60a917;" parent="K4cyZv8H0wW2V2rLuBcf-14" vertex="1">
                    <mxGeometry x="978" y="20.62" width="120" height="26.25" as="geometry"/>
                </mxCell>
                <mxCell id="Ck6tV_7qu25ByQV0ORCY-29" value="" style="edgeStyle=orthogonalEdgeStyle;rounded=0;orthogonalLoop=1;jettySize=auto;html=1;" parent="K4cyZv8H0wW2V2rLuBcf-14" source="Ck6tV_7qu25ByQV0ORCY-26" target="Ck6tV_7qu25ByQV0ORCY-28" edge="1">
                    <mxGeometry relative="1" as="geometry"/>
                </mxCell>
                <mxCell id="Ck6tV_7qu25ByQV0ORCY-26" value="تعیین هزینه پیمانکار" style="whiteSpace=wrap;html=1;fontColor=#ffffff;strokeColor=#2D7600;fillColor=#60a917;" parent="K4cyZv8H0wW2V2rLuBcf-14" vertex="1">
                    <mxGeometry x="1140" y="21.88" width="120" height="23.75" as="geometry"/>
                </mxCell>
                <mxCell id="Ck6tV_7qu25ByQV0ORCY-28" value="تعیین قیمت کل" style="whiteSpace=wrap;html=1;fontColor=#ffffff;strokeColor=#2D7600;fillColor=#60a917;" parent="K4cyZv8H0wW2V2rLuBcf-14" vertex="1">
                    <mxGeometry x="1340" y="15.63" width="120" height="36.25" as="geometry"/>
                </mxCell>
                <mxCell id="Ck6tV_7qu25ByQV0ORCY-32" style="edgeStyle=orthogonalEdgeStyle;rounded=0;orthogonalLoop=1;jettySize=auto;html=1;exitX=1;exitY=0.5;exitDx=0;exitDy=0;" parent="K4cyZv8H0wW2V2rLuBcf-14" source="Ck6tV_7qu25ByQV0ORCY-30" target="Ck6tV_7qu25ByQV0ORCY-24" edge="1">
                    <mxGeometry relative="1" as="geometry"/>
                </mxCell>
                <mxCell id="Ck6tV_7qu25ByQV0ORCY-30" value="اعطای رول مورد نیاز" style="whiteSpace=wrap;html=1;fontColor=#ffffff;strokeColor=#2D7600;fillColor=#60a917;" parent="K4cyZv8H0wW2V2rLuBcf-14" vertex="1">
                    <mxGeometry x="825" y="80" width="120" height="30" as="geometry"/>
                </mxCell>
                <mxCell id="Ck6tV_7qu25ByQV0ORCY-34" value="انتخاب شخص پیمانکار" style="whiteSpace=wrap;html=1;fontColor=#ffffff;strokeColor=#2D7600;fillColor=#60a917;" parent="K4cyZv8H0wW2V2rLuBcf-14" vertex="1">
                    <mxGeometry x="620" y="107.5" width="120" height="35" as="geometry"/>
                </mxCell>
                <mxCell id="Ck6tV_7qu25ByQV0ORCY-44" value="اعطای رول مورد نیاز" style="whiteSpace=wrap;html=1;fontColor=#ffffff;strokeColor=#2D7600;fillColor=#60a917;" parent="K4cyZv8H0wW2V2rLuBcf-14" vertex="1">
                    <mxGeometry x="835" y="230" width="120" height="30" as="geometry"/>
                </mxCell>
                <mxCell id="Ck6tV_7qu25ByQV0ORCY-37" value="&lt;font style=&quot;font-size: 10px&quot;&gt;رول اپراتور بسته بندی&lt;/font&gt;" style="rhombus;whiteSpace=wrap;html=1;fontColor=#ffffff;strokeColor=#6F0000;fillColor=#a20025;" parent="K4cyZv8H0wW2V2rLuBcf-14" vertex="1">
                    <mxGeometry x="860" y="130" width="70" height="52.5" as="geometry"/>
                </mxCell>
                <mxCell id="Ck6tV_7qu25ByQV0ORCY-33" value="" style="edgeStyle=orthogonalEdgeStyle;rounded=0;orthogonalLoop=1;jettySize=auto;html=1;" parent="K4cyZv8H0wW2V2rLuBcf-14" source="Ck6tV_7qu25ByQV0ORCY-34" target="Ck6tV_7qu25ByQV0ORCY-37" edge="1">
                    <mxGeometry relative="1" as="geometry"/>
                </mxCell>
                <mxCell id="Ck6tV_7qu25ByQV0ORCY-36" value="" style="edgeStyle=orthogonalEdgeStyle;rounded=0;orthogonalLoop=1;jettySize=auto;html=1;" parent="K4cyZv8H0wW2V2rLuBcf-14" source="Ck6tV_7qu25ByQV0ORCY-37" target="Ck6tV_7qu25ByQV0ORCY-44" edge="1">
                    <mxGeometry relative="1" as="geometry"/>
                </mxCell>
                <mxCell id="Ck6tV_7qu25ByQV0ORCY-39" value="مشخص کردن فرد" style="whiteSpace=wrap;html=1;fontColor=#ffffff;strokeColor=#2D7600;fillColor=#60a917;" parent="K4cyZv8H0wW2V2rLuBcf-14" vertex="1">
                    <mxGeometry x="1030" y="123.12" width="120" height="26.25" as="geometry"/>
                </mxCell>
                <mxCell id="Ck6tV_7qu25ByQV0ORCY-35" value="" style="edgeStyle=orthogonalEdgeStyle;rounded=0;orthogonalLoop=1;jettySize=auto;html=1;" parent="K4cyZv8H0wW2V2rLuBcf-14" source="Ck6tV_7qu25ByQV0ORCY-37" target="Ck6tV_7qu25ByQV0ORCY-39" edge="1">
                    <mxGeometry relative="1" as="geometry"/>
                </mxCell>
                <mxCell id="Ck6tV_7qu25ByQV0ORCY-43" style="edgeStyle=orthogonalEdgeStyle;rounded=0;orthogonalLoop=1;jettySize=auto;html=1;exitX=1;exitY=0.5;exitDx=0;exitDy=0;" parent="K4cyZv8H0wW2V2rLuBcf-14" source="Ck6tV_7qu25ByQV0ORCY-44" target="Ck6tV_7qu25ByQV0ORCY-39" edge="1">
                    <mxGeometry relative="1" as="geometry"/>
                </mxCell>
                <mxCell id="Ck6tV_7qu25ByQV0ORCY-41" value="تعیین هزینه پیمانکار" style="whiteSpace=wrap;html=1;fontColor=#ffffff;strokeColor=#2D7600;fillColor=#60a917;" parent="K4cyZv8H0wW2V2rLuBcf-14" vertex="1">
                    <mxGeometry x="1200" y="123.12" width="120" height="23.75" as="geometry"/>
                </mxCell>
                <mxCell id="Ck6tV_7qu25ByQV0ORCY-38" value="" style="edgeStyle=orthogonalEdgeStyle;rounded=0;orthogonalLoop=1;jettySize=auto;html=1;" parent="K4cyZv8H0wW2V2rLuBcf-14" source="Ck6tV_7qu25ByQV0ORCY-39" target="Ck6tV_7qu25ByQV0ORCY-41" edge="1">
                    <mxGeometry relative="1" as="geometry"/>
                </mxCell>
                <mxCell id="Ck6tV_7qu25ByQV0ORCY-42" value="تعیین قیمت کل" style="whiteSpace=wrap;html=1;fontColor=#ffffff;strokeColor=#2D7600;fillColor=#60a917;" parent="K4cyZv8H0wW2V2rLuBcf-14" vertex="1">
                    <mxGeometry x="1390" y="118.12" width="120" height="36.25" as="geometry"/>
                </mxCell>
                <mxCell id="Ck6tV_7qu25ByQV0ORCY-40" value="" style="edgeStyle=orthogonalEdgeStyle;rounded=0;orthogonalLoop=1;jettySize=auto;html=1;" parent="K4cyZv8H0wW2V2rLuBcf-14" source="Ck6tV_7qu25ByQV0ORCY-41" target="Ck6tV_7qu25ByQV0ORCY-42" edge="1">
                    <mxGeometry relative="1" as="geometry"/>
                </mxCell>
                <mxCell id="Ck6tV_7qu25ByQV0ORCY-84" value="انتخاب شخص پیمانکار" style="whiteSpace=wrap;html=1;fontColor=#ffffff;strokeColor=#2D7600;fillColor=#60a917;" parent="K4cyZv8H0wW2V2rLuBcf-14" vertex="1">
                    <mxGeometry x="620" y="280" width="120" height="35" as="geometry"/>
                </mxCell>
                <mxCell id="Ck6tV_7qu25ByQV0ORCY-87" value="&lt;font style=&quot;font-size: 11px&quot;&gt;&lt;span class=&quot;L3&quot;&gt;اپراتور چاپ و الصاق فاکتو&lt;/span&gt;&lt;span class=&quot;L3&quot;&gt;ر&lt;/span&gt;&lt;/font&gt;" style="rhombus;whiteSpace=wrap;html=1;fontColor=#ffffff;strokeColor=#6F0000;fillColor=#a20025;" parent="K4cyZv8H0wW2V2rLuBcf-14" vertex="1">
                    <mxGeometry x="810" y="270" width="80" height="70" as="geometry"/>
                </mxCell>
                <mxCell id="Ck6tV_7qu25ByQV0ORCY-83" value="" style="edgeStyle=orthogonalEdgeStyle;rounded=0;orthogonalLoop=1;jettySize=auto;html=1;" parent="K4cyZv8H0wW2V2rLuBcf-14" source="Ck6tV_7qu25ByQV0ORCY-84" target="Ck6tV_7qu25ByQV0ORCY-87" edge="1">
                    <mxGeometry relative="1" as="geometry"/>
                </mxCell>
                <mxCell id="Ck6tV_7qu25ByQV0ORCY-89" value="مشخص کردن فرد" style="whiteSpace=wrap;html=1;fontColor=#ffffff;strokeColor=#2D7600;fillColor=#60a917;" parent="K4cyZv8H0wW2V2rLuBcf-14" vertex="1">
                    <mxGeometry x="938" y="293.12" width="120" height="26.25" as="geometry"/>
                </mxCell>
                <mxCell id="Ck6tV_7qu25ByQV0ORCY-85" value="" style="edgeStyle=orthogonalEdgeStyle;rounded=0;orthogonalLoop=1;jettySize=auto;html=1;" parent="K4cyZv8H0wW2V2rLuBcf-14" source="Ck6tV_7qu25ByQV0ORCY-87" target="Ck6tV_7qu25ByQV0ORCY-89" edge="1">
                    <mxGeometry relative="1" as="geometry">
                        <Array as="points">
                            <mxPoint x="914" y="305"/>
                            <mxPoint x="914" y="306"/>
                        </Array>
                    </mxGeometry>
                </mxCell>
                <mxCell id="Ck6tV_7qu25ByQV0ORCY-91" value="تعیین هزینه پیمانکار" style="whiteSpace=wrap;html=1;fontColor=#ffffff;strokeColor=#2D7600;fillColor=#60a917;" parent="K4cyZv8H0wW2V2rLuBcf-14" vertex="1">
                    <mxGeometry x="1100" y="294.38" width="120" height="23.75" as="geometry"/>
                </mxCell>
                <mxCell id="Ck6tV_7qu25ByQV0ORCY-88" value="" style="edgeStyle=orthogonalEdgeStyle;rounded=0;orthogonalLoop=1;jettySize=auto;html=1;" parent="K4cyZv8H0wW2V2rLuBcf-14" source="Ck6tV_7qu25ByQV0ORCY-89" target="Ck6tV_7qu25ByQV0ORCY-91" edge="1">
                    <mxGeometry relative="1" as="geometry"/>
                </mxCell>
                <mxCell id="Ck6tV_7qu25ByQV0ORCY-92" value="تعیین قیمت کل" style="whiteSpace=wrap;html=1;fontColor=#ffffff;strokeColor=#2D7600;fillColor=#60a917;" parent="K4cyZv8H0wW2V2rLuBcf-14" vertex="1">
                    <mxGeometry x="1300" y="288.13" width="120" height="36.25" as="geometry"/>
                </mxCell>
                <mxCell id="Ck6tV_7qu25ByQV0ORCY-90" value="" style="edgeStyle=orthogonalEdgeStyle;rounded=0;orthogonalLoop=1;jettySize=auto;html=1;" parent="K4cyZv8H0wW2V2rLuBcf-14" source="Ck6tV_7qu25ByQV0ORCY-91" target="Ck6tV_7qu25ByQV0ORCY-92" edge="1">
                    <mxGeometry relative="1" as="geometry"/>
                </mxCell>
                <mxCell id="Ck6tV_7qu25ByQV0ORCY-93" style="edgeStyle=orthogonalEdgeStyle;rounded=0;orthogonalLoop=1;jettySize=auto;html=1;exitX=1;exitY=0.5;exitDx=0;exitDy=0;" parent="K4cyZv8H0wW2V2rLuBcf-14" source="Ck6tV_7qu25ByQV0ORCY-94" target="Ck6tV_7qu25ByQV0ORCY-89" edge="1">
                    <mxGeometry relative="1" as="geometry"/>
                </mxCell>
                <mxCell id="Ck6tV_7qu25ByQV0ORCY-94" value="اعطای رول مورد نیاز" style="whiteSpace=wrap;html=1;fontColor=#ffffff;strokeColor=#2D7600;fillColor=#60a917;" parent="K4cyZv8H0wW2V2rLuBcf-14" vertex="1">
                    <mxGeometry x="790" y="360" width="120" height="30" as="geometry"/>
                </mxCell>
                <mxCell id="Ck6tV_7qu25ByQV0ORCY-86" value="" style="edgeStyle=orthogonalEdgeStyle;rounded=0;orthogonalLoop=1;jettySize=auto;html=1;" parent="K4cyZv8H0wW2V2rLuBcf-14" source="Ck6tV_7qu25ByQV0ORCY-87" target="Ck6tV_7qu25ByQV0ORCY-94" edge="1">
                    <mxGeometry relative="1" as="geometry"/>
                </mxCell>
                <mxCell id="Ck6tV_7qu25ByQV0ORCY-96" value="&lt;font color=&quot;#000000&quot;&gt;بله&lt;/font&gt;" style="text;html=1;strokeColor=none;fillColor=none;align=center;verticalAlign=middle;whiteSpace=wrap;rounded=0;" parent="K4cyZv8H0wW2V2rLuBcf-14" vertex="1">
                    <mxGeometry x="930" y="130" width="40" height="20" as="geometry"/>
                </mxCell>
                <mxCell id="Ck6tV_7qu25ByQV0ORCY-98" value="&lt;font color=&quot;#000000&quot;&gt;بله&lt;/font&gt;" style="text;html=1;strokeColor=none;fillColor=none;align=center;verticalAlign=middle;whiteSpace=wrap;rounded=0;" parent="K4cyZv8H0wW2V2rLuBcf-14" vertex="1">
                    <mxGeometry x="920" y="10" width="40" height="20" as="geometry"/>
                </mxCell>
                <mxCell id="Ck6tV_7qu25ByQV0ORCY-97" value="&lt;font color=&quot;#000000&quot;&gt;بله&lt;/font&gt;" style="text;html=1;strokeColor=none;fillColor=none;align=center;verticalAlign=middle;whiteSpace=wrap;rounded=0;" parent="K4cyZv8H0wW2V2rLuBcf-14" vertex="1">
                    <mxGeometry x="890" y="280" width="40" height="20" as="geometry"/>
                </mxCell>
                <mxCell id="Ck6tV_7qu25ByQV0ORCY-99" value="&lt;font color=&quot;#000000&quot;&gt;خیر&lt;/font&gt;" style="text;html=1;strokeColor=none;fillColor=none;align=center;verticalAlign=middle;whiteSpace=wrap;rounded=0;" parent="K4cyZv8H0wW2V2rLuBcf-14" vertex="1">
                    <mxGeometry x="888" y="51.88" width="40" height="20" as="geometry"/>
                </mxCell>
                <mxCell id="Ck6tV_7qu25ByQV0ORCY-100" value="&lt;font color=&quot;#000000&quot;&gt;خیر&lt;/font&gt;" style="text;html=1;strokeColor=none;fillColor=none;align=center;verticalAlign=middle;whiteSpace=wrap;rounded=0;" parent="K4cyZv8H0wW2V2rLuBcf-14" vertex="1">
                    <mxGeometry x="905" y="182.5" width="40" height="20" as="geometry"/>
                </mxCell>
                <mxCell id="Ck6tV_7qu25ByQV0ORCY-102" value="انتخاب شخص پیمانکار" style="whiteSpace=wrap;html=1;fontColor=#ffffff;strokeColor=#2D7600;fillColor=#60a917;" parent="K4cyZv8H0wW2V2rLuBcf-14" vertex="1">
                    <mxGeometry x="610" y="415" width="120" height="35" as="geometry"/>
                </mxCell>
                <mxCell id="Ck6tV_7qu25ByQV0ORCY-103" value="اپراتور ثبت سفارش" style="rhombus;whiteSpace=wrap;html=1;fontColor=#ffffff;strokeColor=#6F0000;fillColor=#a20025;" parent="K4cyZv8H0wW2V2rLuBcf-14" vertex="1">
                    <mxGeometry x="800" y="405" width="80" height="70" as="geometry"/>
                </mxCell>
                <mxCell id="Ck6tV_7qu25ByQV0ORCY-104" value="" style="edgeStyle=orthogonalEdgeStyle;rounded=0;orthogonalLoop=1;jettySize=auto;html=1;" parent="K4cyZv8H0wW2V2rLuBcf-14" source="Ck6tV_7qu25ByQV0ORCY-102" target="Ck6tV_7qu25ByQV0ORCY-103" edge="1">
                    <mxGeometry relative="1" as="geometry"/>
                </mxCell>
                <mxCell id="Ck6tV_7qu25ByQV0ORCY-105" value="مشخص کردن فرد" style="whiteSpace=wrap;html=1;fontColor=#ffffff;strokeColor=#2D7600;fillColor=#60a917;" parent="K4cyZv8H0wW2V2rLuBcf-14" vertex="1">
                    <mxGeometry x="928" y="428.12" width="120" height="26.25" as="geometry"/>
                </mxCell>
                <mxCell id="Ck6tV_7qu25ByQV0ORCY-106" value="" style="edgeStyle=orthogonalEdgeStyle;rounded=0;orthogonalLoop=1;jettySize=auto;html=1;" parent="K4cyZv8H0wW2V2rLuBcf-14" source="Ck6tV_7qu25ByQV0ORCY-103" target="Ck6tV_7qu25ByQV0ORCY-105" edge="1">
                    <mxGeometry relative="1" as="geometry">
                        <Array as="points">
                            <mxPoint x="904" y="440"/>
                            <mxPoint x="904" y="441"/>
                        </Array>
                    </mxGeometry>
                </mxCell>
                <mxCell id="Ck6tV_7qu25ByQV0ORCY-107" value="تعیین هزینه پیمانکار" style="whiteSpace=wrap;html=1;fontColor=#ffffff;strokeColor=#2D7600;fillColor=#60a917;" parent="K4cyZv8H0wW2V2rLuBcf-14" vertex="1">
                    <mxGeometry x="1090" y="429.38" width="120" height="23.75" as="geometry"/>
                </mxCell>
                <mxCell id="Ck6tV_7qu25ByQV0ORCY-108" value="" style="edgeStyle=orthogonalEdgeStyle;rounded=0;orthogonalLoop=1;jettySize=auto;html=1;" parent="K4cyZv8H0wW2V2rLuBcf-14" source="Ck6tV_7qu25ByQV0ORCY-105" target="Ck6tV_7qu25ByQV0ORCY-107" edge="1">
                    <mxGeometry relative="1" as="geometry"/>
                </mxCell>
                <mxCell id="Ck6tV_7qu25ByQV0ORCY-109" value="تعیین قیمت کل" style="whiteSpace=wrap;html=1;fontColor=#ffffff;strokeColor=#2D7600;fillColor=#60a917;" parent="K4cyZv8H0wW2V2rLuBcf-14" vertex="1">
                    <mxGeometry x="1290" y="423.13" width="120" height="36.25" as="geometry"/>
                </mxCell>
                <mxCell id="Ck6tV_7qu25ByQV0ORCY-110" value="" style="edgeStyle=orthogonalEdgeStyle;rounded=0;orthogonalLoop=1;jettySize=auto;html=1;" parent="K4cyZv8H0wW2V2rLuBcf-14" source="Ck6tV_7qu25ByQV0ORCY-107" target="Ck6tV_7qu25ByQV0ORCY-109" edge="1">
                    <mxGeometry relative="1" as="geometry"/>
                </mxCell>
                <mxCell id="Ck6tV_7qu25ByQV0ORCY-111" style="edgeStyle=orthogonalEdgeStyle;rounded=0;orthogonalLoop=1;jettySize=auto;html=1;exitX=1;exitY=0.5;exitDx=0;exitDy=0;" parent="K4cyZv8H0wW2V2rLuBcf-14" source="Ck6tV_7qu25ByQV0ORCY-112" target="Ck6tV_7qu25ByQV0ORCY-105" edge="1">
                    <mxGeometry relative="1" as="geometry"/>
                </mxCell>
                <mxCell id="Ck6tV_7qu25ByQV0ORCY-112" value="اعطای رول مورد نیاز" style="whiteSpace=wrap;html=1;fontColor=#ffffff;strokeColor=#2D7600;fillColor=#60a917;" parent="K4cyZv8H0wW2V2rLuBcf-14" vertex="1">
                    <mxGeometry x="780" y="495" width="120" height="30" as="geometry"/>
                </mxCell>
                <mxCell id="Ck6tV_7qu25ByQV0ORCY-113" value="" style="edgeStyle=orthogonalEdgeStyle;rounded=0;orthogonalLoop=1;jettySize=auto;html=1;" parent="K4cyZv8H0wW2V2rLuBcf-14" source="Ck6tV_7qu25ByQV0ORCY-103" target="Ck6tV_7qu25ByQV0ORCY-112" edge="1">
                    <mxGeometry relative="1" as="geometry"/>
                </mxCell>
                <mxCell id="Ck6tV_7qu25ByQV0ORCY-114" value="&lt;font color=&quot;#000000&quot;&gt;بله&lt;/font&gt;" style="text;html=1;strokeColor=none;fillColor=none;align=center;verticalAlign=middle;whiteSpace=wrap;rounded=0;" parent="K4cyZv8H0wW2V2rLuBcf-14" vertex="1">
                    <mxGeometry x="880" y="415" width="40" height="20" as="geometry"/>
                </mxCell>
                <mxCell id="Ck6tV_7qu25ByQV0ORCY-115" value="انتخاب شخص پیمانکار" style="whiteSpace=wrap;html=1;fontColor=#ffffff;strokeColor=#2D7600;fillColor=#60a917;" parent="K4cyZv8H0wW2V2rLuBcf-14" vertex="1">
                    <mxGeometry x="630" y="550" width="120" height="30" as="geometry"/>
                </mxCell>
                <mxCell id="Ck6tV_7qu25ByQV0ORCY-116" value="" style="rhombus;whiteSpace=wrap;html=1;fontColor=#ffffff;strokeColor=#6F0000;fillColor=#a20025;" parent="K4cyZv8H0wW2V2rLuBcf-14" vertex="1">
                    <mxGeometry x="820" y="540" width="80" height="70" as="geometry"/>
                </mxCell>
                <mxCell id="Ck6tV_7qu25ByQV0ORCY-117" value="" style="edgeStyle=orthogonalEdgeStyle;rounded=0;orthogonalLoop=1;jettySize=auto;html=1;" parent="K4cyZv8H0wW2V2rLuBcf-14" source="Ck6tV_7qu25ByQV0ORCY-115" target="Ck6tV_7qu25ByQV0ORCY-116" edge="1">
                    <mxGeometry relative="1" as="geometry"/>
                </mxCell>
                <mxCell id="Ck6tV_7qu25ByQV0ORCY-118" value="مشخص کردن فرد" style="whiteSpace=wrap;html=1;fontColor=#ffffff;strokeColor=#2D7600;fillColor=#60a917;" parent="K4cyZv8H0wW2V2rLuBcf-14" vertex="1">
                    <mxGeometry x="948" y="563.1199999999999" width="120" height="26.25" as="geometry"/>
                </mxCell>
                <mxCell id="Ck6tV_7qu25ByQV0ORCY-119" value="" style="edgeStyle=orthogonalEdgeStyle;rounded=0;orthogonalLoop=1;jettySize=auto;html=1;" parent="K4cyZv8H0wW2V2rLuBcf-14" source="Ck6tV_7qu25ByQV0ORCY-116" target="Ck6tV_7qu25ByQV0ORCY-118" edge="1">
                    <mxGeometry relative="1" as="geometry">
                        <Array as="points">
                            <mxPoint x="924" y="575"/>
                            <mxPoint x="924" y="576"/>
                        </Array>
                    </mxGeometry>
                </mxCell>
                <mxCell id="Ck6tV_7qu25ByQV0ORCY-120" value="تعیین هزینه پیمانکار" style="whiteSpace=wrap;html=1;fontColor=#ffffff;strokeColor=#2D7600;fillColor=#60a917;" parent="K4cyZv8H0wW2V2rLuBcf-14" vertex="1">
                    <mxGeometry x="1110" y="564.3800000000001" width="120" height="23.75" as="geometry"/>
                </mxCell>
                <mxCell id="Ck6tV_7qu25ByQV0ORCY-121" value="" style="edgeStyle=orthogonalEdgeStyle;rounded=0;orthogonalLoop=1;jettySize=auto;html=1;" parent="K4cyZv8H0wW2V2rLuBcf-14" source="Ck6tV_7qu25ByQV0ORCY-118" target="Ck6tV_7qu25ByQV0ORCY-120" edge="1">
                    <mxGeometry relative="1" as="geometry"/>
                </mxCell>
                <mxCell id="Ck6tV_7qu25ByQV0ORCY-122" value="تعیین قیمت کل" style="whiteSpace=wrap;html=1;fontColor=#ffffff;strokeColor=#2D7600;fillColor=#60a917;" parent="K4cyZv8H0wW2V2rLuBcf-14" vertex="1">
                    <mxGeometry x="1310" y="558.1300000000001" width="120" height="36.25" as="geometry"/>
                </mxCell>
                <mxCell id="Ck6tV_7qu25ByQV0ORCY-123" value="" style="edgeStyle=orthogonalEdgeStyle;rounded=0;orthogonalLoop=1;jettySize=auto;html=1;" parent="K4cyZv8H0wW2V2rLuBcf-14" source="Ck6tV_7qu25ByQV0ORCY-120" target="Ck6tV_7qu25ByQV0ORCY-122" edge="1">
                    <mxGeometry relative="1" as="geometry"/>
                </mxCell>
                <mxCell id="Ck6tV_7qu25ByQV0ORCY-124" style="edgeStyle=orthogonalEdgeStyle;rounded=0;orthogonalLoop=1;jettySize=auto;html=1;exitX=1;exitY=0.5;exitDx=0;exitDy=0;" parent="K4cyZv8H0wW2V2rLuBcf-14" source="Ck6tV_7qu25ByQV0ORCY-125" target="Ck6tV_7qu25ByQV0ORCY-118" edge="1">
                    <mxGeometry relative="1" as="geometry"/>
                </mxCell>
                <mxCell id="Ck6tV_7qu25ByQV0ORCY-125" value="اعطای رول مورد نیاز" style="whiteSpace=wrap;html=1;fontColor=#ffffff;strokeColor=#2D7600;fillColor=#60a917;" parent="K4cyZv8H0wW2V2rLuBcf-14" vertex="1">
                    <mxGeometry x="800" y="630" width="120" height="30" as="geometry"/>
                </mxCell>
                <mxCell id="Ck6tV_7qu25ByQV0ORCY-126" value="" style="edgeStyle=orthogonalEdgeStyle;rounded=0;orthogonalLoop=1;jettySize=auto;html=1;" parent="K4cyZv8H0wW2V2rLuBcf-14" source="Ck6tV_7qu25ByQV0ORCY-116" target="Ck6tV_7qu25ByQV0ORCY-125" edge="1">
                    <mxGeometry relative="1" as="geometry"/>
                </mxCell>
                <mxCell id="Ck6tV_7qu25ByQV0ORCY-127" value="&lt;font color=&quot;#000000&quot;&gt;بله&lt;/font&gt;" style="text;html=1;strokeColor=none;fillColor=none;align=center;verticalAlign=middle;whiteSpace=wrap;rounded=0;" parent="K4cyZv8H0wW2V2rLuBcf-14" vertex="1">
                    <mxGeometry x="900" y="550" width="40" height="20" as="geometry"/>
                </mxCell>
                <mxCell id="Ck6tV_7qu25ByQV0ORCY-129" value="&lt;font color=&quot;#000000&quot;&gt;خیر&lt;/font&gt;" style="text;html=1;strokeColor=none;fillColor=none;align=center;verticalAlign=middle;whiteSpace=wrap;rounded=0;" parent="K4cyZv8H0wW2V2rLuBcf-14" vertex="1">
                    <mxGeometry x="865" y="600" width="40" height="20" as="geometry"/>
                </mxCell>
                <mxCell id="Ck6tV_7qu25ByQV0ORCY-128" value="&lt;font color=&quot;#000000&quot;&gt;خیر&lt;/font&gt;" style="text;html=1;strokeColor=none;fillColor=none;align=center;verticalAlign=middle;whiteSpace=wrap;rounded=0;" parent="K4cyZv8H0wW2V2rLuBcf-14" vertex="1">
                    <mxGeometry x="840" y="475" width="40" height="20" as="geometry"/>
                </mxCell>
                <mxCell id="Ck6tV_7qu25ByQV0ORCY-1" value="" style="edgeStyle=orthogonalEdgeStyle;rounded=0;orthogonalLoop=1;jettySize=auto;html=1;" parent="K4cyZv8H0wW2V2rLuBcf-0" source="K4cyZv8H0wW2V2rLuBcf-5" target="Ck6tV_7qu25ByQV0ORCY-0" edge="1">
                    <mxGeometry relative="1" as="geometry"/>
                </mxCell>
                <mxCell id="K4cyZv8H0wW2V2rLuBcf-42" value="ثبت اطلاعات فرستنده" style="swimlane;fontColor=#000000;" parent="6-kH1bkSdVMrU8_aLlKb-1" vertex="1">
                    <mxGeometry x="170" y="1375" width="340" height="225" as="geometry">
                        <mxRectangle x="130" y="1140" width="90" height="23" as="alternateBounds"/>
                    </mxGeometry>
                </mxCell>
                <mxCell id="K4cyZv8H0wW2V2rLuBcf-43" value="&lt;span style=&quot;font-size: 25px&quot;&gt;&lt;font color=&quot;#000000&quot;&gt;استان&lt;br&gt;شهر&amp;nbsp;&lt;br&gt;کد پستی&lt;br&gt;&amp;nbsp;شماره تماس&lt;/font&gt;&lt;/span&gt;" style="text;html=1;align=right;verticalAlign=middle;resizable=0;points=[];autosize=1;strokeColor=none;fontColor=#FFFFFF;" parent="K4cyZv8H0wW2V2rLuBcf-42" vertex="1">
                    <mxGeometry x="180" y="50" width="120" height="80" as="geometry"/>
                </mxCell>
                <mxCell id="K4cyZv8H0wW2V2rLuBcf-44" value="انتخاب خدمات پستی" style="swimlane;startSize=23;fontColor=#000000;" parent="6-kH1bkSdVMrU8_aLlKb-1" vertex="1">
                    <mxGeometry x="1780" y="1370" width="310" height="235" as="geometry"/>
                </mxCell>
                <mxCell id="K4cyZv8H0wW2V2rLuBcf-45" value="&lt;div style=&quot;font-size: 25px&quot;&gt;&lt;font style=&quot;font-size: 25px&quot; color=&quot;#000000&quot;&gt;چاپ فاکتور&lt;/font&gt;&lt;/div&gt;&lt;div style=&quot;font-size: 25px&quot;&gt;&lt;span&gt;&lt;font style=&quot;font-size: 25px&quot; color=&quot;#000000&quot;&gt;کد تخفیف&lt;/font&gt;&lt;/span&gt;&lt;/div&gt;&lt;div style=&quot;font-size: 25px&quot;&gt;&lt;span&gt;&lt;font style=&quot;font-size: 25px&quot; color=&quot;#000000&quot;&gt;فعال کردن اطلاع رسانی پیامکی&lt;/font&gt;&lt;/span&gt;&lt;/div&gt;&lt;div style=&quot;font-size: 25px&quot;&gt;&lt;font style=&quot;font-size: 25px&quot; color=&quot;#000000&quot;&gt;چاپ برند تجاری&amp;nbsp;&lt;/font&gt;&lt;/div&gt;" style="text;html=1;align=right;verticalAlign=middle;resizable=0;points=[];autosize=1;strokeColor=none;fontColor=#FFFFFF;" parent="K4cyZv8H0wW2V2rLuBcf-44" vertex="1">
                    <mxGeometry x="15" y="80" width="280" height="60" as="geometry"/>
                </mxCell>
                <mxCell id="K4cyZv8H0wW2V2rLuBcf-46" value="ثبت اطلاعات " style="swimlane;fontColor=#000000;" parent="6-kH1bkSdVMrU8_aLlKb-1" vertex="1">
                    <mxGeometry x="670" y="1375" width="360" height="225" as="geometry"/>
                </mxCell>
                <mxCell id="K4cyZv8H0wW2V2rLuBcf-47" value="&lt;font style=&quot;font-size: 24px&quot; color=&quot;#000000&quot;&gt;محتوایات مرسوله&amp;nbsp;&lt;br&gt;&lt;/font&gt;&lt;font style=&quot;font-size: 24px&quot;&gt;&lt;font style=&quot;font-size: 24px&quot; color=&quot;#000000&quot;&gt;وزن&amp;nbsp;&lt;br&gt;ارزش ریالی کالا&lt;br&gt;تعداد بسته ها&amp;nbsp;&lt;br&gt;وزن مرسوله&amp;nbsp;&lt;br&gt;انتخاب بیمه&amp;nbsp;&lt;/font&gt;&lt;br&gt;&lt;/font&gt;" style="text;html=1;align=right;verticalAlign=middle;resizable=0;points=[];autosize=1;strokeColor=none;fontColor=#FFFFFF;" parent="K4cyZv8H0wW2V2rLuBcf-46" vertex="1">
                    <mxGeometry x="190" y="75" width="160" height="110" as="geometry"/>
                </mxCell>
                <mxCell id="K4cyZv8H0wW2V2rLuBcf-48" value="ثبت اطلاعات گیرنده " style="swimlane;fontColor=#000000;" parent="6-kH1bkSdVMrU8_aLlKb-1" vertex="1">
                    <mxGeometry x="1250" y="1375" width="260" height="225" as="geometry"/>
                </mxCell>
                <mxCell id="K4cyZv8H0wW2V2rLuBcf-49" value="&lt;span style=&quot;font-size: 25px&quot;&gt;&lt;font color=&quot;#000000&quot;&gt;استان&lt;br&gt;شهر&amp;nbsp;&lt;br&gt;کد پستی&lt;br&gt;&amp;nbsp;شماره تماس&lt;/font&gt;&lt;/span&gt;" style="text;html=1;align=right;verticalAlign=middle;resizable=0;points=[];autosize=1;strokeColor=none;fontColor=#FFFFFF;" parent="K4cyZv8H0wW2V2rLuBcf-48" vertex="1">
                    <mxGeometry x="120" y="55" width="120" height="80" as="geometry"/>
                </mxCell>
                <mxCell id="Ck6tV_7qu25ByQV0ORCY-101" value="&lt;font color=&quot;#000000&quot;&gt;خیر&lt;/font&gt;" style="text;html=1;strokeColor=none;fillColor=none;align=center;verticalAlign=middle;whiteSpace=wrap;rounded=0;" parent="6-kH1bkSdVMrU8_aLlKb-1" vertex="1">
                    <mxGeometry x="930" y="840" width="40" height="20" as="geometry"/>
                </mxCell>
            </root>
        </mxGraphModel>
    </diagram>
</mxfile>